<mxfile host="app.diagrams.net" modified="2022-09-30T16:56:58.718Z" agent="5.0 (Windows NT 10.0; Win64; x64) AppleWebKit/537.36 (KHTML, like Gecko) Chrome/105.0.0.0 Safari/537.36 Edg/105.0.1343.53" etag="CMFmFRtnZVtJOHU5zRXf" version="20.3.7" type="github">
  <diagram id="-q2NBIkOUKQ5KJ9IoZcb" name="Page-1">
    <mxGraphModel dx="3483" dy="2122" grid="1" gridSize="10" guides="1" tooltips="1" connect="1" arrows="1" fold="1" page="1" pageScale="1" pageWidth="1100" pageHeight="850" math="0" shadow="0">
      <root>
        <mxCell id="0" />
        <mxCell id="1" parent="0" />
        <mxCell id="dlsL4Dd-ksCW8n_tkzhh-74" value="Worker elements" style="html=1;fillColor=#FFFFFE;gradientDirection=north;verticalAlign=top;fontSize=19;glass=0;rounded=1;dashed=1;fontColor=#333333;strokeColor=#666666;" parent="1" vertex="1">
          <mxGeometry x="400" y="-200" width="340" height="870" as="geometry" />
        </mxCell>
        <mxCell id="dlsL4Dd-ksCW8n_tkzhh-209" value="Device elements" style="html=1;fillColor=#FFFFFE;gradientDirection=north;verticalAlign=top;fontSize=19;glass=0;rounded=1;dashed=1;fontColor=#333333;strokeColor=#666666;" parent="1" vertex="1">
          <mxGeometry x="770" y="-200" width="440" height="650" as="geometry" />
        </mxCell>
        <mxCell id="dlsL4Dd-ksCW8n_tkzhh-71" value="Agenda requeriments" style="html=1;gradientDirection=north;verticalAlign=top;fontSize=19;glass=0;rounded=1;dashed=1;" parent="1" vertex="1">
          <mxGeometry x="770" y="460" width="440" height="488" as="geometry" />
        </mxCell>
        <mxCell id="dlsL4Dd-ksCW8n_tkzhh-1" value="Worker" style="swimlane;fontStyle=1;align=center;verticalAlign=top;childLayout=stackLayout;horizontal=1;startSize=26;horizontalStack=0;resizeParent=1;resizeParentMax=0;resizeLast=0;collapsible=1;marginBottom=0;fillColor=#dae8fc;strokeColor=#6c8ebf;" parent="1" vertex="1">
          <mxGeometry x="495" y="280" width="160" height="346" as="geometry" />
        </mxCell>
        <mxCell id="dlsL4Dd-ksCW8n_tkzhh-16" value="+ workerId (hidden)" style="text;align=left;verticalAlign=top;spacingLeft=4;spacingRight=4;overflow=hidden;rotatable=0;points=[[0,0.5],[1,0.5]];portConstraint=eastwest;fillColor=default;fontStyle=1" parent="dlsL4Dd-ksCW8n_tkzhh-1" vertex="1">
          <mxGeometry y="26" width="160" height="26" as="geometry" />
        </mxCell>
        <mxCell id="dlsL4Dd-ksCW8n_tkzhh-2" value="+ workerUsername" style="text;align=left;verticalAlign=top;spacingLeft=4;spacingRight=4;overflow=hidden;rotatable=0;points=[[0,0.5],[1,0.5]];portConstraint=eastwest;fillColor=default;" parent="dlsL4Dd-ksCW8n_tkzhh-1" vertex="1">
          <mxGeometry y="52" width="160" height="26" as="geometry" />
        </mxCell>
        <mxCell id="dlsL4Dd-ksCW8n_tkzhh-5" value="+ workerNameFirst" style="text;align=left;verticalAlign=top;spacingLeft=4;spacingRight=4;overflow=hidden;rotatable=0;points=[[0,0.5],[1,0.5]];portConstraint=eastwest;fillColor=default;" parent="dlsL4Dd-ksCW8n_tkzhh-1" vertex="1">
          <mxGeometry y="78" width="160" height="26" as="geometry" />
        </mxCell>
        <mxCell id="dlsL4Dd-ksCW8n_tkzhh-6" value="+ workerNameLast" style="text;align=left;verticalAlign=top;spacingLeft=4;spacingRight=4;overflow=hidden;rotatable=0;points=[[0,0.5],[1,0.5]];portConstraint=eastwest;fillColor=default;" parent="dlsL4Dd-ksCW8n_tkzhh-1" vertex="1">
          <mxGeometry y="104" width="160" height="26" as="geometry" />
        </mxCell>
        <mxCell id="dlsL4Dd-ksCW8n_tkzhh-7" value="+ workerDateReg" style="text;align=left;verticalAlign=top;spacingLeft=4;spacingRight=4;overflow=hidden;rotatable=0;points=[[0,0.5],[1,0.5]];portConstraint=eastwest;fillColor=default;" parent="dlsL4Dd-ksCW8n_tkzhh-1" vertex="1">
          <mxGeometry y="130" width="160" height="26" as="geometry" />
        </mxCell>
        <mxCell id="dlsL4Dd-ksCW8n_tkzhh-9" value="+ workerDateBirth" style="text;align=left;verticalAlign=top;spacingLeft=4;spacingRight=4;overflow=hidden;rotatable=0;points=[[0,0.5],[1,0.5]];portConstraint=eastwest;fillColor=default;" parent="dlsL4Dd-ksCW8n_tkzhh-1" vertex="1">
          <mxGeometry y="156" width="160" height="26" as="geometry" />
        </mxCell>
        <mxCell id="dlsL4Dd-ksCW8n_tkzhh-59" value="+ workerPhoto" style="text;align=left;verticalAlign=top;spacingLeft=4;spacingRight=4;overflow=hidden;rotatable=0;points=[[0,0.5],[1,0.5]];portConstraint=eastwest;fillColor=default;" parent="dlsL4Dd-ksCW8n_tkzhh-1" vertex="1">
          <mxGeometry y="182" width="160" height="26" as="geometry" />
        </mxCell>
        <mxCell id="dlsL4Dd-ksCW8n_tkzhh-66" value="+ workerPassword" style="text;align=left;verticalAlign=top;spacingLeft=4;spacingRight=4;overflow=hidden;rotatable=0;points=[[0,0.5],[1,0.5]];portConstraint=eastwest;fillColor=default;" parent="dlsL4Dd-ksCW8n_tkzhh-1" vertex="1">
          <mxGeometry y="208" width="160" height="26" as="geometry" />
        </mxCell>
        <mxCell id="dlsL4Dd-ksCW8n_tkzhh-67" value="+ workerStatusActive" style="text;align=left;verticalAlign=top;spacingLeft=4;spacingRight=4;overflow=hidden;rotatable=0;points=[[0,0.5],[1,0.5]];portConstraint=eastwest;fillColor=default;" parent="dlsL4Dd-ksCW8n_tkzhh-1" vertex="1">
          <mxGeometry y="234" width="160" height="26" as="geometry" />
        </mxCell>
        <mxCell id="dlsL4Dd-ksCW8n_tkzhh-188" value="+ workerStatusIntra" style="text;align=left;verticalAlign=top;spacingLeft=4;spacingRight=4;overflow=hidden;rotatable=0;points=[[0,0.5],[1,0.5]];portConstraint=eastwest;fillColor=default;" parent="dlsL4Dd-ksCW8n_tkzhh-1" vertex="1">
          <mxGeometry y="260" width="160" height="26" as="geometry" />
        </mxCell>
        <mxCell id="dlsL4Dd-ksCW8n_tkzhh-68" value="+ workerBio" style="text;align=left;verticalAlign=top;spacingLeft=4;spacingRight=4;overflow=hidden;rotatable=0;points=[[0,0.5],[1,0.5]];portConstraint=eastwest;fillColor=default;" parent="dlsL4Dd-ksCW8n_tkzhh-1" vertex="1">
          <mxGeometry y="286" width="160" height="26" as="geometry" />
        </mxCell>
        <mxCell id="dlsL4Dd-ksCW8n_tkzhh-69" value="+ workerScore" style="text;align=left;verticalAlign=top;spacingLeft=4;spacingRight=4;overflow=hidden;rotatable=0;points=[[0,0.5],[1,0.5]];portConstraint=eastwest;fillColor=default;" parent="dlsL4Dd-ksCW8n_tkzhh-1" vertex="1">
          <mxGeometry y="312" width="160" height="26" as="geometry" />
        </mxCell>
        <mxCell id="dlsL4Dd-ksCW8n_tkzhh-3" value="" style="line;strokeWidth=1;fillColor=none;align=left;verticalAlign=middle;spacingTop=-1;spacingLeft=3;spacingRight=3;rotatable=0;labelPosition=right;points=[];portConstraint=eastwest;strokeColor=inherit;" parent="dlsL4Dd-ksCW8n_tkzhh-1" vertex="1">
          <mxGeometry y="338" width="160" height="8" as="geometry" />
        </mxCell>
        <mxCell id="dlsL4Dd-ksCW8n_tkzhh-11" value="AddressBook" style="swimlane;fontStyle=0;childLayout=stackLayout;horizontal=1;startSize=26;fillColor=#d5e8d4;horizontalStack=0;resizeParent=1;resizeParentMax=0;resizeLast=0;collapsible=1;marginBottom=0;strokeColor=#82b366;" parent="1" vertex="1">
          <mxGeometry x="1030" y="500" width="140" height="135.5151515151515" as="geometry" />
        </mxCell>
        <mxCell id="dlsL4Dd-ksCW8n_tkzhh-13" value="+ addrbId (hidden)" style="text;align=left;verticalAlign=top;spacingLeft=4;spacingRight=4;overflow=hidden;rotatable=0;points=[[0,0.5],[1,0.5]];portConstraint=eastwest;fillColor=default;fontStyle=1" parent="dlsL4Dd-ksCW8n_tkzhh-11" vertex="1">
          <mxGeometry y="26" width="140" height="26" as="geometry" />
        </mxCell>
        <mxCell id="-k2Xn9ZAjX-aGM0QEJ7x-5" value="- workerId" style="text;strokeColor=none;fillColor=#dae8fc;align=left;verticalAlign=top;spacingLeft=4;spacingRight=4;overflow=hidden;rotatable=0;points=[[0,0.5],[1,0.5]];portConstraint=eastwest;gradientColor=#FFFFFF;gradientDirection=north;" parent="dlsL4Dd-ksCW8n_tkzhh-11" vertex="1">
          <mxGeometry y="52" width="140" height="31.51515151515152" as="geometry" />
        </mxCell>
        <mxCell id="dlsL4Dd-ksCW8n_tkzhh-14" value="+ addrbName" style="text;align=left;verticalAlign=top;spacingLeft=4;spacingRight=4;overflow=hidden;rotatable=0;points=[[0,0.5],[1,0.5]];portConstraint=eastwest;fillColor=default;" parent="dlsL4Dd-ksCW8n_tkzhh-11" vertex="1">
          <mxGeometry y="83.51515151515152" width="140" height="26" as="geometry" />
        </mxCell>
        <mxCell id="dlsL4Dd-ksCW8n_tkzhh-18" value="+ addrbDescrip" style="text;align=left;verticalAlign=top;spacingLeft=4;spacingRight=4;overflow=hidden;rotatable=0;points=[[0,0.5],[1,0.5]];portConstraint=eastwest;fillColor=default;" parent="dlsL4Dd-ksCW8n_tkzhh-11" vertex="1">
          <mxGeometry y="109.51515151515152" width="140" height="26" as="geometry" />
        </mxCell>
        <mxCell id="dlsL4Dd-ksCW8n_tkzhh-19" value="Contact" style="swimlane;fontStyle=0;childLayout=stackLayout;horizontal=1;startSize=26;fillColor=#ffe6cc;horizontalStack=0;resizeParent=1;resizeParentMax=0;resizeLast=0;collapsible=1;marginBottom=0;strokeColor=#d79b00;" parent="1" vertex="1">
          <mxGeometry x="1030" y="650" width="140" height="156" as="geometry" />
        </mxCell>
        <mxCell id="dlsL4Dd-ksCW8n_tkzhh-33" value="+ contactId (hidden)" style="text;align=left;verticalAlign=top;spacingLeft=4;spacingRight=4;overflow=hidden;rotatable=0;points=[[0,0.5],[1,0.5]];portConstraint=eastwest;fillColor=default;fontStyle=1" parent="dlsL4Dd-ksCW8n_tkzhh-19" vertex="1">
          <mxGeometry y="26" width="140" height="26" as="geometry" />
        </mxCell>
        <mxCell id="dlsL4Dd-ksCW8n_tkzhh-25" value="+ addrbId" style="text;align=left;verticalAlign=top;spacingLeft=4;spacingRight=4;overflow=hidden;rotatable=0;points=[[0,0.5],[1,0.5]];portConstraint=eastwest;fillColor=#d5e8d4;strokeColor=none;gradientColor=#FFFFFF;gradientDirection=north;" parent="dlsL4Dd-ksCW8n_tkzhh-19" vertex="1">
          <mxGeometry y="52" width="140" height="26" as="geometry" />
        </mxCell>
        <mxCell id="dlsL4Dd-ksCW8n_tkzhh-60" value="+ contactPhoto" style="text;align=left;verticalAlign=top;spacingLeft=4;spacingRight=4;overflow=hidden;rotatable=0;points=[[0,0.5],[1,0.5]];portConstraint=eastwest;fillColor=default;" parent="dlsL4Dd-ksCW8n_tkzhh-19" vertex="1">
          <mxGeometry y="78" width="140" height="26" as="geometry" />
        </mxCell>
        <mxCell id="dlsL4Dd-ksCW8n_tkzhh-61" value="+ contactDescr" style="text;align=left;verticalAlign=top;spacingLeft=4;spacingRight=4;overflow=hidden;rotatable=0;points=[[0,0.5],[1,0.5]];portConstraint=eastwest;fillColor=default;" parent="dlsL4Dd-ksCW8n_tkzhh-19" vertex="1">
          <mxGeometry y="104" width="140" height="26" as="geometry" />
        </mxCell>
        <mxCell id="dlsL4Dd-ksCW8n_tkzhh-62" value="+ contactDateBirth" style="text;align=left;verticalAlign=top;spacingLeft=4;spacingRight=4;overflow=hidden;rotatable=0;points=[[0,0.5],[1,0.5]];portConstraint=eastwest;fillColor=default;" parent="dlsL4Dd-ksCW8n_tkzhh-19" vertex="1">
          <mxGeometry y="130" width="140" height="26" as="geometry" />
        </mxCell>
        <mxCell id="dlsL4Dd-ksCW8n_tkzhh-30" value="contactField" style="swimlane;fontStyle=0;childLayout=stackLayout;horizontal=1;startSize=26;fillColor=#fff2cc;horizontalStack=0;resizeParent=1;resizeParentMax=0;resizeLast=0;collapsible=1;marginBottom=0;strokeColor=#d6b656;" parent="1" vertex="1">
          <mxGeometry x="1030" y="828" width="140" height="104" as="geometry" />
        </mxCell>
        <mxCell id="dlsL4Dd-ksCW8n_tkzhh-161" value="+ fieldId" style="text;align=left;verticalAlign=top;spacingLeft=4;spacingRight=4;overflow=hidden;rotatable=0;points=[[0,0.5],[1,0.5]];portConstraint=eastwest;fillColor=#e1d5e7;strokeColor=none;gradientColor=#FFFFFF;gradientDirection=north;" parent="dlsL4Dd-ksCW8n_tkzhh-30" vertex="1">
          <mxGeometry y="26" width="140" height="26" as="geometry" />
        </mxCell>
        <mxCell id="dlsL4Dd-ksCW8n_tkzhh-35" value="+ contactfId" style="text;align=left;verticalAlign=top;spacingLeft=4;spacingRight=4;overflow=hidden;rotatable=0;points=[[0,0.5],[1,0.5]];portConstraint=eastwest;fillColor=#ffe6cc;strokeColor=none;gradientColor=#FFFFFF;gradientDirection=north;" parent="dlsL4Dd-ksCW8n_tkzhh-30" vertex="1">
          <mxGeometry y="52" width="140" height="26" as="geometry" />
        </mxCell>
        <mxCell id="dlsL4Dd-ksCW8n_tkzhh-42" value="+ contactfField" style="text;align=left;verticalAlign=top;spacingLeft=4;spacingRight=4;overflow=hidden;rotatable=0;points=[[0,0.5],[1,0.5]];portConstraint=eastwest;fillColor=default;" parent="dlsL4Dd-ksCW8n_tkzhh-30" vertex="1">
          <mxGeometry y="78" width="140" height="26" as="geometry" />
        </mxCell>
        <mxCell id="dlsL4Dd-ksCW8n_tkzhh-63" style="edgeStyle=orthogonalEdgeStyle;rounded=0;orthogonalLoop=1;jettySize=auto;html=1;exitX=1;exitY=0.25;exitDx=0;exitDy=0;entryX=0;entryY=0.5;entryDx=0;entryDy=0;fillColor=#e1d5e7;strokeColor=#9673a6;" parent="1" source="dlsL4Dd-ksCW8n_tkzhh-43" edge="1">
          <mxGeometry relative="1" as="geometry">
            <mxPoint x="1030" y="867" as="targetPoint" />
            <Array as="points">
              <mxPoint x="1000" y="593" />
              <mxPoint x="1000" y="867" />
            </Array>
          </mxGeometry>
        </mxCell>
        <mxCell id="dlsL4Dd-ksCW8n_tkzhh-43" value="Field" style="swimlane;fontStyle=1;align=center;verticalAlign=top;childLayout=stackLayout;horizontal=1;startSize=26;horizontalStack=0;resizeParent=1;resizeParentMax=0;resizeLast=0;collapsible=1;marginBottom=0;fillColor=#e1d5e7;strokeColor=#9673a6;" parent="1" vertex="1">
          <mxGeometry x="810" y="552" width="160" height="138" as="geometry" />
        </mxCell>
        <mxCell id="dlsL4Dd-ksCW8n_tkzhh-44" value="+ fieldId (hidden)" style="text;align=left;verticalAlign=top;spacingLeft=4;spacingRight=4;overflow=hidden;rotatable=0;points=[[0,0.5],[1,0.5]];portConstraint=eastwest;fillColor=default;fontStyle=1" parent="dlsL4Dd-ksCW8n_tkzhh-43" vertex="1">
          <mxGeometry y="26" width="160" height="26" as="geometry" />
        </mxCell>
        <mxCell id="dlsL4Dd-ksCW8n_tkzhh-54" value="+ fieldName" style="text;align=left;verticalAlign=top;spacingLeft=4;spacingRight=4;overflow=hidden;rotatable=0;points=[[0,0.5],[1,0.5]];portConstraint=eastwest;fillColor=default;" parent="dlsL4Dd-ksCW8n_tkzhh-43" vertex="1">
          <mxGeometry y="52" width="160" height="26" as="geometry" />
        </mxCell>
        <mxCell id="dlsL4Dd-ksCW8n_tkzhh-55" value="+ fieldDescription" style="text;align=left;verticalAlign=top;spacingLeft=4;spacingRight=4;overflow=hidden;rotatable=0;points=[[0,0.5],[1,0.5]];portConstraint=eastwest;fillColor=default;" parent="dlsL4Dd-ksCW8n_tkzhh-43" vertex="1">
          <mxGeometry y="78" width="160" height="26" as="geometry" />
        </mxCell>
        <mxCell id="dlsL4Dd-ksCW8n_tkzhh-45" value="+ fieldArgument" style="text;align=left;verticalAlign=top;spacingLeft=4;spacingRight=4;overflow=hidden;rotatable=0;points=[[0,0.5],[1,0.5]];portConstraint=eastwest;fillColor=default;" parent="dlsL4Dd-ksCW8n_tkzhh-43" vertex="1">
          <mxGeometry y="104" width="160" height="26" as="geometry" />
        </mxCell>
        <mxCell id="dlsL4Dd-ksCW8n_tkzhh-52" value="" style="line;strokeWidth=1;fillColor=none;align=left;verticalAlign=middle;spacingTop=-1;spacingLeft=3;spacingRight=3;rotatable=0;labelPosition=right;points=[];portConstraint=eastwest;strokeColor=inherit;" parent="dlsL4Dd-ksCW8n_tkzhh-43" vertex="1">
          <mxGeometry y="130" width="160" height="8" as="geometry" />
        </mxCell>
        <mxCell id="dlsL4Dd-ksCW8n_tkzhh-64" style="edgeStyle=orthogonalEdgeStyle;rounded=0;orthogonalLoop=1;jettySize=auto;html=1;exitX=1;exitY=0.5;exitDx=0;exitDy=0;entryX=0;entryY=0.5;entryDx=0;entryDy=0;fillColor=#ffe6cc;strokeColor=#d79b00;" parent="1" source="dlsL4Dd-ksCW8n_tkzhh-33" target="dlsL4Dd-ksCW8n_tkzhh-35" edge="1">
          <mxGeometry relative="1" as="geometry">
            <Array as="points">
              <mxPoint x="1190" y="689" />
              <mxPoint x="1190" y="818" />
              <mxPoint x="1010" y="818" />
              <mxPoint x="1010" y="893" />
            </Array>
          </mxGeometry>
        </mxCell>
        <mxCell id="dlsL4Dd-ksCW8n_tkzhh-65" style="edgeStyle=orthogonalEdgeStyle;rounded=0;orthogonalLoop=1;jettySize=auto;html=1;exitX=1;exitY=0.5;exitDx=0;exitDy=0;entryX=0;entryY=0.5;entryDx=0;entryDy=0;fillColor=#d5e8d4;strokeColor=#82b366;" parent="1" source="dlsL4Dd-ksCW8n_tkzhh-13" target="dlsL4Dd-ksCW8n_tkzhh-25" edge="1">
          <mxGeometry relative="1" as="geometry">
            <Array as="points">
              <mxPoint x="1190" y="539" />
              <mxPoint x="1190" y="638" />
              <mxPoint x="1010" y="638" />
              <mxPoint x="1010" y="715" />
            </Array>
          </mxGeometry>
        </mxCell>
        <mxCell id="dlsL4Dd-ksCW8n_tkzhh-92" value="Attendance report" style="html=1;gradientDirection=north;verticalAlign=top;fontSize=19;glass=0;rounded=1;dashed=1;" parent="1" vertex="1">
          <mxGeometry x="390" y="700" width="370" height="248" as="geometry" />
        </mxCell>
        <mxCell id="dlsL4Dd-ksCW8n_tkzhh-93" value="Workday" style="swimlane;fontStyle=0;childLayout=stackLayout;horizontal=1;startSize=26;fillColor=#d5e8d4;horizontalStack=0;resizeParent=1;resizeParentMax=0;resizeLast=0;collapsible=1;marginBottom=0;strokeColor=#82b366;" parent="1" vertex="1">
          <mxGeometry x="440" y="759" width="140" height="161.5151515151515" as="geometry" />
        </mxCell>
        <mxCell id="dlsL4Dd-ksCW8n_tkzhh-94" value="+ workdId (hidden)" style="text;align=left;verticalAlign=top;spacingLeft=4;spacingRight=4;overflow=hidden;rotatable=0;points=[[0,0.5],[1,0.5]];portConstraint=eastwest;fillColor=default;fontStyle=1" parent="dlsL4Dd-ksCW8n_tkzhh-93" vertex="1">
          <mxGeometry y="26" width="140" height="26" as="geometry" />
        </mxCell>
        <mxCell id="-k2Xn9ZAjX-aGM0QEJ7x-7" value="- workerId" style="text;strokeColor=none;fillColor=#dae8fc;align=left;verticalAlign=top;spacingLeft=4;spacingRight=4;overflow=hidden;rotatable=0;points=[[0,0.5],[1,0.5]];portConstraint=eastwest;gradientColor=#FFFFFF;gradientDirection=north;" parent="dlsL4Dd-ksCW8n_tkzhh-93" vertex="1">
          <mxGeometry y="52" width="140" height="31.51515151515152" as="geometry" />
        </mxCell>
        <mxCell id="dlsL4Dd-ksCW8n_tkzhh-97" value="+ workdDate" style="text;align=left;verticalAlign=top;spacingLeft=4;spacingRight=4;overflow=hidden;rotatable=0;points=[[0,0.5],[1,0.5]];portConstraint=eastwest;fillColor=default;" parent="dlsL4Dd-ksCW8n_tkzhh-93" vertex="1">
          <mxGeometry y="83.51515151515152" width="140" height="26" as="geometry" />
        </mxCell>
        <mxCell id="dlsL4Dd-ksCW8n_tkzhh-98" value="+ workdTimeStart" style="text;align=left;verticalAlign=top;spacingLeft=4;spacingRight=4;overflow=hidden;rotatable=0;points=[[0,0.5],[1,0.5]];portConstraint=eastwest;fillColor=default;" parent="dlsL4Dd-ksCW8n_tkzhh-93" vertex="1">
          <mxGeometry y="109.51515151515152" width="140" height="26" as="geometry" />
        </mxCell>
        <mxCell id="dlsL4Dd-ksCW8n_tkzhh-126" value="+ workdTimeEnd" style="text;align=left;verticalAlign=top;spacingLeft=4;spacingRight=4;overflow=hidden;rotatable=0;points=[[0,0.5],[1,0.5]];portConstraint=eastwest;fillColor=default;" parent="dlsL4Dd-ksCW8n_tkzhh-93" vertex="1">
          <mxGeometry y="135.5151515151515" width="140" height="26" as="geometry" />
        </mxCell>
        <mxCell id="dlsL4Dd-ksCW8n_tkzhh-101" value="Breaktime" style="swimlane;fontStyle=0;childLayout=stackLayout;horizontal=1;startSize=26;fillColor=#ffe6cc;horizontalStack=0;resizeParent=1;resizeParentMax=0;resizeLast=0;collapsible=1;marginBottom=0;strokeColor=#d79b00;" parent="1" vertex="1">
          <mxGeometry x="600" y="759" width="140" height="104" as="geometry" />
        </mxCell>
        <mxCell id="dlsL4Dd-ksCW8n_tkzhh-103" value="- workdId" style="text;strokeColor=none;fillColor=#f5f5f5;align=left;verticalAlign=top;spacingLeft=4;spacingRight=4;overflow=hidden;rotatable=0;points=[[0,0.5],[1,0.5]];portConstraint=eastwest;gradientDirection=north;fontColor=#333333;gradientColor=#FFFFFF;" parent="dlsL4Dd-ksCW8n_tkzhh-101" vertex="1">
          <mxGeometry y="26" width="140" height="26" as="geometry" />
        </mxCell>
        <mxCell id="dlsL4Dd-ksCW8n_tkzhh-104" value="+ breaktStart" style="text;align=left;verticalAlign=top;spacingLeft=4;spacingRight=4;overflow=hidden;rotatable=0;points=[[0,0.5],[1,0.5]];portConstraint=eastwest;fillColor=default;" parent="dlsL4Dd-ksCW8n_tkzhh-101" vertex="1">
          <mxGeometry y="52" width="140" height="26" as="geometry" />
        </mxCell>
        <mxCell id="dlsL4Dd-ksCW8n_tkzhh-105" value="+ breaktEnd" style="text;align=left;verticalAlign=top;spacingLeft=4;spacingRight=4;overflow=hidden;rotatable=0;points=[[0,0.5],[1,0.5]];portConstraint=eastwest;fillColor=default;" parent="dlsL4Dd-ksCW8n_tkzhh-101" vertex="1">
          <mxGeometry y="78" width="140" height="26" as="geometry" />
        </mxCell>
        <mxCell id="dlsL4Dd-ksCW8n_tkzhh-124" style="edgeStyle=orthogonalEdgeStyle;rounded=0;orthogonalLoop=1;jettySize=auto;html=1;exitX=1;exitY=0.5;exitDx=0;exitDy=0;entryX=0;entryY=0.5;entryDx=0;entryDy=0;fontSize=19;fillColor=#d5e8d4;strokeColor=#82b366;" parent="1" source="dlsL4Dd-ksCW8n_tkzhh-94" target="dlsL4Dd-ksCW8n_tkzhh-103" edge="1">
          <mxGeometry relative="1" as="geometry" />
        </mxCell>
        <mxCell id="dlsL4Dd-ksCW8n_tkzhh-128" value="Badages system" style="html=1;gradientDirection=north;verticalAlign=top;fontSize=19;glass=0;rounded=1;dashed=1;" parent="1" vertex="1">
          <mxGeometry x="10" y="700" width="370" height="248" as="geometry" />
        </mxCell>
        <mxCell id="dlsL4Dd-ksCW8n_tkzhh-140" value="Goals" style="swimlane;fontStyle=0;childLayout=stackLayout;horizontal=1;startSize=26;fillColor=#d5e8d4;horizontalStack=0;resizeParent=1;resizeParentMax=0;resizeLast=0;collapsible=1;marginBottom=0;strokeColor=#82b366;" parent="1" vertex="1">
          <mxGeometry x="45" y="759" width="140" height="135.5151515151515" as="geometry" />
        </mxCell>
        <mxCell id="dlsL4Dd-ksCW8n_tkzhh-155" value="+ goalId (hidden)" style="text;align=left;verticalAlign=top;spacingLeft=4;spacingRight=4;overflow=hidden;rotatable=0;points=[[0,0.5],[1,0.5]];portConstraint=eastwest;fillColor=default;fontStyle=1" parent="dlsL4Dd-ksCW8n_tkzhh-140" vertex="1">
          <mxGeometry y="26" width="140" height="26" as="geometry" />
        </mxCell>
        <mxCell id="-k2Xn9ZAjX-aGM0QEJ7x-8" value="- workerId" style="text;strokeColor=none;fillColor=#dae8fc;align=left;verticalAlign=top;spacingLeft=4;spacingRight=4;overflow=hidden;rotatable=0;points=[[0,0.5],[1,0.5]];portConstraint=eastwest;gradientColor=#FFFFFF;gradientDirection=north;" parent="dlsL4Dd-ksCW8n_tkzhh-140" vertex="1">
          <mxGeometry y="52" width="140" height="31.51515151515152" as="geometry" />
        </mxCell>
        <mxCell id="dlsL4Dd-ksCW8n_tkzhh-152" value="+ contactId" style="text;align=left;verticalAlign=top;spacingLeft=4;spacingRight=4;overflow=hidden;rotatable=0;points=[[0,0.5],[1,0.5]];portConstraint=eastwest;fillColor=#e1d5e7;strokeColor=none;gradientDirection=north;gradientColor=#FFFFFF;" parent="dlsL4Dd-ksCW8n_tkzhh-140" vertex="1">
          <mxGeometry y="83.51515151515152" width="140" height="26" as="geometry" />
        </mxCell>
        <mxCell id="dlsL4Dd-ksCW8n_tkzhh-154" value="+ goalStatus" style="text;align=left;verticalAlign=top;spacingLeft=4;spacingRight=4;overflow=hidden;rotatable=0;points=[[0,0.5],[1,0.5]];portConstraint=eastwest;fillColor=default;" parent="dlsL4Dd-ksCW8n_tkzhh-140" vertex="1">
          <mxGeometry y="109.51515151515152" width="140" height="26" as="geometry" />
        </mxCell>
        <mxCell id="dlsL4Dd-ksCW8n_tkzhh-146" value="Badage" style="swimlane;fontStyle=0;childLayout=stackLayout;horizontal=1;startSize=26;fillColor=#e1d5e7;horizontalStack=0;resizeParent=1;resizeParentMax=0;resizeLast=0;collapsible=1;marginBottom=0;strokeColor=#9673a6;" parent="1" vertex="1">
          <mxGeometry x="205" y="759" width="140" height="156" as="geometry" />
        </mxCell>
        <mxCell id="dlsL4Dd-ksCW8n_tkzhh-151" value="+ badageId (hidden)" style="text;align=left;verticalAlign=top;spacingLeft=4;spacingRight=4;overflow=hidden;rotatable=0;points=[[0,0.5],[1,0.5]];portConstraint=eastwest;fillColor=default;fontStyle=1" parent="dlsL4Dd-ksCW8n_tkzhh-146" vertex="1">
          <mxGeometry y="26" width="140" height="26" as="geometry" />
        </mxCell>
        <mxCell id="dlsL4Dd-ksCW8n_tkzhh-148" value="+ badageName" style="text;align=left;verticalAlign=top;spacingLeft=4;spacingRight=4;overflow=hidden;rotatable=0;points=[[0,0.5],[1,0.5]];portConstraint=eastwest;fillColor=default;" parent="dlsL4Dd-ksCW8n_tkzhh-146" vertex="1">
          <mxGeometry y="52" width="140" height="26" as="geometry" />
        </mxCell>
        <mxCell id="dlsL4Dd-ksCW8n_tkzhh-149" value="+ badageDescr" style="text;align=left;verticalAlign=top;spacingLeft=4;spacingRight=4;overflow=hidden;rotatable=0;points=[[0,0.5],[1,0.5]];portConstraint=eastwest;fillColor=default;" parent="dlsL4Dd-ksCW8n_tkzhh-146" vertex="1">
          <mxGeometry y="78" width="140" height="26" as="geometry" />
        </mxCell>
        <mxCell id="dlsL4Dd-ksCW8n_tkzhh-158" value="+ badagePoints" style="text;align=left;verticalAlign=top;spacingLeft=4;spacingRight=4;overflow=hidden;rotatable=0;points=[[0,0.5],[1,0.5]];portConstraint=eastwest;fillColor=default;" parent="dlsL4Dd-ksCW8n_tkzhh-146" vertex="1">
          <mxGeometry y="104" width="140" height="26" as="geometry" />
        </mxCell>
        <mxCell id="dlsL4Dd-ksCW8n_tkzhh-160" value="+ badageLogo" style="text;align=left;verticalAlign=top;spacingLeft=4;spacingRight=4;overflow=hidden;rotatable=0;points=[[0,0.5],[1,0.5]];portConstraint=eastwest;fillColor=default;" parent="dlsL4Dd-ksCW8n_tkzhh-146" vertex="1">
          <mxGeometry y="130" width="140" height="26" as="geometry" />
        </mxCell>
        <mxCell id="dlsL4Dd-ksCW8n_tkzhh-153" style="edgeStyle=orthogonalEdgeStyle;rounded=0;orthogonalLoop=1;jettySize=auto;html=1;exitX=1;exitY=0.5;exitDx=0;exitDy=0;entryX=0;entryY=0.5;entryDx=0;entryDy=0;fontSize=19;fillColor=#e1d5e7;strokeColor=#9673a6;" parent="1" source="dlsL4Dd-ksCW8n_tkzhh-151" target="dlsL4Dd-ksCW8n_tkzhh-152" edge="1">
          <mxGeometry relative="1" as="geometry">
            <Array as="points">
              <mxPoint x="365" y="798" />
              <mxPoint x="365" y="920" />
              <mxPoint x="25" y="920" />
              <mxPoint x="25" y="856" />
            </Array>
          </mxGeometry>
        </mxCell>
        <mxCell id="dlsL4Dd-ksCW8n_tkzhh-163" style="edgeStyle=orthogonalEdgeStyle;rounded=0;orthogonalLoop=1;jettySize=auto;html=1;exitX=1;exitY=0.5;exitDx=0;exitDy=0;entryX=0;entryY=0.5;entryDx=0;entryDy=0;fontSize=19;fillColor=#dae8fc;strokeColor=#6c8ebf;" parent="1" source="dlsL4Dd-ksCW8n_tkzhh-16" target="dlsL4Dd-ksCW8n_tkzhh-11" edge="1">
          <mxGeometry relative="1" as="geometry">
            <Array as="points">
              <mxPoint x="760" y="319" />
              <mxPoint x="760" y="520" />
              <mxPoint x="1000" y="520" />
              <mxPoint x="1000" y="568" />
            </Array>
          </mxGeometry>
        </mxCell>
        <mxCell id="dlsL4Dd-ksCW8n_tkzhh-164" style="edgeStyle=orthogonalEdgeStyle;rounded=0;orthogonalLoop=1;jettySize=auto;html=1;exitX=1;exitY=0.5;exitDx=0;exitDy=0;entryX=0;entryY=0.5;entryDx=0;entryDy=0;fontSize=19;fillColor=#dae8fc;strokeColor=#6c8ebf;" parent="1" source="dlsL4Dd-ksCW8n_tkzhh-16" edge="1">
          <mxGeometry relative="1" as="geometry">
            <Array as="points">
              <mxPoint x="760" y="319" />
              <mxPoint x="760" y="690" />
              <mxPoint x="420" y="690" />
              <mxPoint x="420" y="824" />
            </Array>
            <mxPoint x="440" y="824" as="targetPoint" />
          </mxGeometry>
        </mxCell>
        <mxCell id="dlsL4Dd-ksCW8n_tkzhh-165" style="edgeStyle=orthogonalEdgeStyle;rounded=0;orthogonalLoop=1;jettySize=auto;html=1;exitX=1;exitY=0.5;exitDx=0;exitDy=0;entryX=0;entryY=0.5;entryDx=0;entryDy=0;fontSize=19;fillColor=#dae8fc;strokeColor=#6c8ebf;" parent="1" source="dlsL4Dd-ksCW8n_tkzhh-16" edge="1">
          <mxGeometry relative="1" as="geometry">
            <Array as="points">
              <mxPoint x="760" y="319" />
              <mxPoint x="760" y="690" />
              <mxPoint x="25" y="690" />
              <mxPoint x="25" y="824" />
            </Array>
            <mxPoint x="45" y="824" as="targetPoint" />
          </mxGeometry>
        </mxCell>
        <mxCell id="dlsL4Dd-ksCW8n_tkzhh-216" style="edgeStyle=orthogonalEdgeStyle;rounded=0;orthogonalLoop=1;jettySize=auto;html=1;exitX=1;exitY=0.25;exitDx=0;exitDy=0;entryX=0;entryY=0.5;entryDx=0;entryDy=0;fontSize=19;fillColor=#ffe6cc;strokeColor=#d79b00;" parent="1" source="dlsL4Dd-ksCW8n_tkzhh-181" target="dlsL4Dd-ksCW8n_tkzhh-192" edge="1">
          <mxGeometry relative="1" as="geometry">
            <Array as="points">
              <mxPoint x="1185" y="-101" />
              <mxPoint x="1185" y="30" />
              <mxPoint x="1005" y="30" />
              <mxPoint x="1005" y="125" />
            </Array>
          </mxGeometry>
        </mxCell>
        <mxCell id="dlsL4Dd-ksCW8n_tkzhh-260" style="edgeStyle=orthogonalEdgeStyle;rounded=0;orthogonalLoop=1;jettySize=auto;html=1;exitX=1;exitY=0.25;exitDx=0;exitDy=0;entryX=0;entryY=0.5;entryDx=0;entryDy=0;strokeWidth=1;fontSize=19;fillColor=#ffe6cc;strokeColor=#d79b00;" parent="1" source="dlsL4Dd-ksCW8n_tkzhh-181" target="dlsL4Dd-ksCW8n_tkzhh-254" edge="1">
          <mxGeometry relative="1" as="geometry">
            <Array as="points">
              <mxPoint x="1185" y="-101" />
              <mxPoint x="1185" y="30" />
              <mxPoint x="1005" y="30" />
              <mxPoint x="1005" y="-160" />
              <mxPoint x="795" y="-160" />
              <mxPoint x="795" y="-81" />
            </Array>
          </mxGeometry>
        </mxCell>
        <mxCell id="dlsL4Dd-ksCW8n_tkzhh-181" value="Device" style="swimlane;fontStyle=0;childLayout=stackLayout;horizontal=1;startSize=26;fillColor=#ffe6cc;horizontalStack=0;resizeParent=1;resizeParentMax=0;resizeLast=0;collapsible=1;marginBottom=0;strokeColor=#d79b00;" parent="1" vertex="1">
          <mxGeometry x="1025" y="-140" width="140" height="156" as="geometry" />
        </mxCell>
        <mxCell id="dlsL4Dd-ksCW8n_tkzhh-182" value="+ deviceId (hidden)" style="text;align=left;verticalAlign=top;spacingLeft=4;spacingRight=4;overflow=hidden;rotatable=0;points=[[0,0.5],[1,0.5]];portConstraint=eastwest;fillColor=default;fontStyle=1" parent="dlsL4Dd-ksCW8n_tkzhh-181" vertex="1">
          <mxGeometry y="26" width="140" height="26" as="geometry" />
        </mxCell>
        <mxCell id="dlsL4Dd-ksCW8n_tkzhh-183" value="+ jobId" style="text;align=left;verticalAlign=top;spacingLeft=4;spacingRight=4;overflow=hidden;rotatable=0;points=[[0,0.5],[1,0.5]];portConstraint=eastwest;fillColor=#d5e8d4;strokeColor=none;gradientColor=#FFFFFF;gradientDirection=north;" parent="dlsL4Dd-ksCW8n_tkzhh-181" vertex="1">
          <mxGeometry y="52" width="140" height="26" as="geometry" />
        </mxCell>
        <mxCell id="dlsL4Dd-ksCW8n_tkzhh-194" value="+ deviceName" style="text;align=left;verticalAlign=top;spacingLeft=4;spacingRight=4;overflow=hidden;rotatable=0;points=[[0,0.5],[1,0.5]];portConstraint=eastwest;fillColor=default;" parent="dlsL4Dd-ksCW8n_tkzhh-181" vertex="1">
          <mxGeometry y="78" width="140" height="26" as="geometry" />
        </mxCell>
        <mxCell id="dlsL4Dd-ksCW8n_tkzhh-196" value="+ deviceDescr" style="text;align=left;verticalAlign=top;spacingLeft=4;spacingRight=4;overflow=hidden;rotatable=0;points=[[0,0.5],[1,0.5]];portConstraint=eastwest;fillColor=default;" parent="dlsL4Dd-ksCW8n_tkzhh-181" vertex="1">
          <mxGeometry y="104" width="140" height="26" as="geometry" />
        </mxCell>
        <mxCell id="dlsL4Dd-ksCW8n_tkzhh-197" value="+ deviceDateReq" style="text;align=left;verticalAlign=top;spacingLeft=4;spacingRight=4;overflow=hidden;rotatable=0;points=[[0,0.5],[1,0.5]];portConstraint=eastwest;fillColor=default;" parent="dlsL4Dd-ksCW8n_tkzhh-181" vertex="1">
          <mxGeometry y="130" width="140" height="26" as="geometry" />
        </mxCell>
        <mxCell id="dlsL4Dd-ksCW8n_tkzhh-190" value="Functions" style="swimlane;fontStyle=0;childLayout=stackLayout;horizontal=1;startSize=26;fillColor=#f5f5f5;horizontalStack=0;resizeParent=1;resizeParentMax=0;resizeLast=0;collapsible=1;marginBottom=0;strokeColor=#666666;fontColor=#333333;" parent="1" vertex="1">
          <mxGeometry x="1025" y="60" width="140" height="130" as="geometry" />
        </mxCell>
        <mxCell id="dlsL4Dd-ksCW8n_tkzhh-193" value="+ devicefId (hidden)" style="text;align=left;verticalAlign=top;spacingLeft=4;spacingRight=4;overflow=hidden;rotatable=0;points=[[0,0.5],[1,0.5]];portConstraint=eastwest;fillColor=default;fontStyle=1" parent="dlsL4Dd-ksCW8n_tkzhh-190" vertex="1">
          <mxGeometry y="26" width="140" height="26" as="geometry" />
        </mxCell>
        <mxCell id="dlsL4Dd-ksCW8n_tkzhh-192" value="+ deviceId" style="text;align=left;verticalAlign=top;spacingLeft=4;spacingRight=4;overflow=hidden;rotatable=0;points=[[0,0.5],[1,0.5]];portConstraint=eastwest;fillColor=#ffe6cc;strokeColor=none;gradientColor=#FFFFFF;gradientDirection=north;" parent="dlsL4Dd-ksCW8n_tkzhh-190" vertex="1">
          <mxGeometry y="52" width="140" height="26" as="geometry" />
        </mxCell>
        <mxCell id="dlsL4Dd-ksCW8n_tkzhh-261" value="+ devicefName" style="text;align=left;verticalAlign=top;spacingLeft=4;spacingRight=4;overflow=hidden;rotatable=0;points=[[0,0.5],[1,0.5]];portConstraint=eastwest;fillColor=default;" parent="dlsL4Dd-ksCW8n_tkzhh-190" vertex="1">
          <mxGeometry y="78" width="140" height="26" as="geometry" />
        </mxCell>
        <mxCell id="dlsL4Dd-ksCW8n_tkzhh-262" value="+ devicefDescrip" style="text;align=left;verticalAlign=top;spacingLeft=4;spacingRight=4;overflow=hidden;rotatable=0;points=[[0,0.5],[1,0.5]];portConstraint=eastwest;fillColor=default;" parent="dlsL4Dd-ksCW8n_tkzhh-190" vertex="1">
          <mxGeometry y="104" width="140" height="26" as="geometry" />
        </mxCell>
        <mxCell id="dlsL4Dd-ksCW8n_tkzhh-200" value="Part" style="swimlane;fontStyle=0;childLayout=stackLayout;horizontal=1;startSize=26;fillColor=#f8cecc;horizontalStack=0;resizeParent=1;resizeParentMax=0;resizeLast=0;collapsible=1;marginBottom=0;strokeColor=#b85450;" parent="1" vertex="1">
          <mxGeometry x="815" y="-20" width="140" height="182" as="geometry" />
        </mxCell>
        <mxCell id="dlsL4Dd-ksCW8n_tkzhh-201" value="+ partId (hidden)" style="text;align=left;verticalAlign=top;spacingLeft=4;spacingRight=4;overflow=hidden;rotatable=0;points=[[0,0.5],[1,0.5]];portConstraint=eastwest;fillColor=default;fontStyle=1" parent="dlsL4Dd-ksCW8n_tkzhh-200" vertex="1">
          <mxGeometry y="26" width="140" height="26" as="geometry" />
        </mxCell>
        <mxCell id="dlsL4Dd-ksCW8n_tkzhh-217" value="+ moduledId" style="text;align=left;verticalAlign=top;spacingLeft=4;spacingRight=4;overflow=hidden;rotatable=0;points=[[0,0.5],[1,0.5]];portConstraint=eastwest;fillColor=#b0e3e6;strokeColor=none;gradientDirection=north;gradientColor=#FFFFFF;" parent="dlsL4Dd-ksCW8n_tkzhh-200" vertex="1">
          <mxGeometry y="52" width="140" height="26" as="geometry" />
        </mxCell>
        <mxCell id="dlsL4Dd-ksCW8n_tkzhh-218" value="+ partBrand" style="text;align=left;verticalAlign=top;spacingLeft=4;spacingRight=4;overflow=hidden;rotatable=0;points=[[0,0.5],[1,0.5]];portConstraint=eastwest;fillColor=default;" parent="dlsL4Dd-ksCW8n_tkzhh-200" vertex="1">
          <mxGeometry y="78" width="140" height="26" as="geometry" />
        </mxCell>
        <mxCell id="dlsL4Dd-ksCW8n_tkzhh-208" value="+ partInvoice" style="text;align=left;verticalAlign=top;spacingLeft=4;spacingRight=4;overflow=hidden;rotatable=0;points=[[0,0.5],[1,0.5]];portConstraint=eastwest;fillColor=default;" parent="dlsL4Dd-ksCW8n_tkzhh-200" vertex="1">
          <mxGeometry y="104" width="140" height="26" as="geometry" />
        </mxCell>
        <mxCell id="dlsL4Dd-ksCW8n_tkzhh-205" value="+ partDatePurchased" style="text;align=left;verticalAlign=top;spacingLeft=4;spacingRight=4;overflow=hidden;rotatable=0;points=[[0,0.5],[1,0.5]];portConstraint=eastwest;fillColor=default;" parent="dlsL4Dd-ksCW8n_tkzhh-200" vertex="1">
          <mxGeometry y="130" width="140" height="26" as="geometry" />
        </mxCell>
        <mxCell id="dlsL4Dd-ksCW8n_tkzhh-219" value="+ partCost" style="text;align=left;verticalAlign=top;spacingLeft=4;spacingRight=4;overflow=hidden;rotatable=0;points=[[0,0.5],[1,0.5]];portConstraint=eastwest;fillColor=default;" parent="dlsL4Dd-ksCW8n_tkzhh-200" vertex="1">
          <mxGeometry y="156" width="140" height="26" as="geometry" />
        </mxCell>
        <mxCell id="dlsL4Dd-ksCW8n_tkzhh-220" value="PartMaintenance" style="swimlane;fontStyle=0;childLayout=stackLayout;horizontal=1;startSize=26;fillColor=#fff2cc;horizontalStack=0;resizeParent=1;resizeParentMax=0;resizeLast=0;collapsible=1;marginBottom=0;strokeColor=#d6b656;" parent="1" vertex="1">
          <mxGeometry x="815" y="200" width="140" height="239.5151515151515" as="geometry" />
        </mxCell>
        <mxCell id="dlsL4Dd-ksCW8n_tkzhh-221" value="+ partmId (hidden)" style="text;align=left;verticalAlign=top;spacingLeft=4;spacingRight=4;overflow=hidden;rotatable=0;points=[[0,0.5],[1,0.5]];portConstraint=eastwest;fillColor=default;fontStyle=1" parent="dlsL4Dd-ksCW8n_tkzhh-220" vertex="1">
          <mxGeometry y="26" width="140" height="26" as="geometry" />
        </mxCell>
        <mxCell id="dlsL4Dd-ksCW8n_tkzhh-224" value="+ addrbId" style="text;align=left;verticalAlign=top;spacingLeft=4;spacingRight=4;overflow=hidden;rotatable=0;points=[[0,0.5],[1,0.5]];portConstraint=eastwest;fillColor=#f8cecc;strokeColor=none;gradientDirection=north;gradientColor=#FFFFFF;" parent="dlsL4Dd-ksCW8n_tkzhh-220" vertex="1">
          <mxGeometry y="52" width="140" height="26" as="geometry" />
        </mxCell>
        <mxCell id="-k2Xn9ZAjX-aGM0QEJ7x-4" value="- workerId" style="text;strokeColor=none;fillColor=#dae8fc;align=left;verticalAlign=top;spacingLeft=4;spacingRight=4;overflow=hidden;rotatable=0;points=[[0,0.5],[1,0.5]];portConstraint=eastwest;gradientColor=#FFFFFF;gradientDirection=north;" parent="dlsL4Dd-ksCW8n_tkzhh-220" vertex="1">
          <mxGeometry y="78" width="140" height="31.51515151515152" as="geometry" />
        </mxCell>
        <mxCell id="dlsL4Dd-ksCW8n_tkzhh-264" value="+ partmDateLong" style="text;align=left;verticalAlign=top;spacingLeft=4;spacingRight=4;overflow=hidden;rotatable=0;points=[[0,0.5],[1,0.5]];portConstraint=eastwest;fillColor=default;" parent="dlsL4Dd-ksCW8n_tkzhh-220" vertex="1">
          <mxGeometry y="109.51515151515152" width="140" height="26" as="geometry" />
        </mxCell>
        <mxCell id="dlsL4Dd-ksCW8n_tkzhh-228" value="+ partmTime" style="text;align=left;verticalAlign=top;spacingLeft=4;spacingRight=4;overflow=hidden;rotatable=0;points=[[0,0.5],[1,0.5]];portConstraint=eastwest;fillColor=default;" parent="dlsL4Dd-ksCW8n_tkzhh-220" vertex="1">
          <mxGeometry y="135.5151515151515" width="140" height="26" as="geometry" />
        </mxCell>
        <mxCell id="dlsL4Dd-ksCW8n_tkzhh-272" value="+ partmCost" style="text;align=left;verticalAlign=top;spacingLeft=4;spacingRight=4;overflow=hidden;rotatable=0;points=[[0,0.5],[1,0.5]];portConstraint=eastwest;fillColor=default;" parent="dlsL4Dd-ksCW8n_tkzhh-220" vertex="1">
          <mxGeometry y="161.5151515151515" width="140" height="26" as="geometry" />
        </mxCell>
        <mxCell id="dlsL4Dd-ksCW8n_tkzhh-273" value="+ partmInvoice" style="text;align=left;verticalAlign=top;spacingLeft=4;spacingRight=4;overflow=hidden;rotatable=0;points=[[0,0.5],[1,0.5]];portConstraint=eastwest;fillColor=default;" parent="dlsL4Dd-ksCW8n_tkzhh-220" vertex="1">
          <mxGeometry y="187.5151515151515" width="140" height="26" as="geometry" />
        </mxCell>
        <mxCell id="dlsL4Dd-ksCW8n_tkzhh-227" value="+ partmDescrip" style="text;align=left;verticalAlign=top;spacingLeft=4;spacingRight=4;overflow=hidden;rotatable=0;points=[[0,0.5],[1,0.5]];portConstraint=eastwest;fillColor=default;" parent="dlsL4Dd-ksCW8n_tkzhh-220" vertex="1">
          <mxGeometry y="213.5151515151515" width="140" height="26" as="geometry" />
        </mxCell>
        <mxCell id="dlsL4Dd-ksCW8n_tkzhh-223" style="edgeStyle=orthogonalEdgeStyle;rounded=0;orthogonalLoop=1;jettySize=auto;html=1;exitX=1;exitY=0.5;exitDx=0;exitDy=0;entryX=0;entryY=0.5;entryDx=0;entryDy=0;fontSize=19;fillColor=#f8cecc;strokeColor=#b85450;" parent="1" source="dlsL4Dd-ksCW8n_tkzhh-201" target="dlsL4Dd-ksCW8n_tkzhh-224" edge="1">
          <mxGeometry relative="1" as="geometry">
            <Array as="points">
              <mxPoint x="980" y="19" />
              <mxPoint x="980" y="190" />
              <mxPoint x="790" y="190" />
              <mxPoint x="790" y="265" />
            </Array>
          </mxGeometry>
        </mxCell>
        <mxCell id="dlsL4Dd-ksCW8n_tkzhh-229" style="edgeStyle=orthogonalEdgeStyle;rounded=0;orthogonalLoop=1;jettySize=auto;html=1;exitX=1;exitY=0.5;exitDx=0;exitDy=0;entryX=0;entryY=0.5;entryDx=0;entryDy=0;strokeWidth=1;fontSize=19;fillColor=#dae8fc;strokeColor=#6c8ebf;" parent="1" source="dlsL4Dd-ksCW8n_tkzhh-16" target="dlsL4Dd-ksCW8n_tkzhh-121" edge="1">
          <mxGeometry relative="1" as="geometry">
            <Array as="points">
              <mxPoint x="760" y="319" />
              <mxPoint x="760" y="210" />
              <mxPoint x="540" y="210" />
              <mxPoint x="540" y="140" />
            </Array>
          </mxGeometry>
        </mxCell>
        <mxCell id="dlsL4Dd-ksCW8n_tkzhh-230" style="edgeStyle=orthogonalEdgeStyle;rounded=0;orthogonalLoop=1;jettySize=auto;html=1;exitX=1;exitY=0.5;exitDx=0;exitDy=0;entryX=0;entryY=0.5;entryDx=0;entryDy=0;strokeWidth=1;fontSize=19;fillColor=#d5e8d4;strokeColor=#82b366;" parent="1" source="dlsL4Dd-ksCW8n_tkzhh-166" target="dlsL4Dd-ksCW8n_tkzhh-183" edge="1">
          <mxGeometry relative="1" as="geometry">
            <Array as="points">
              <mxPoint x="760" y="108" />
              <mxPoint x="760" y="-170" />
              <mxPoint x="1000" y="-170" />
              <mxPoint x="1000" y="-75" />
            </Array>
          </mxGeometry>
        </mxCell>
        <mxCell id="dlsL4Dd-ksCW8n_tkzhh-251" value="DeviceModule" style="swimlane;fontStyle=0;childLayout=stackLayout;horizontal=1;startSize=26;fillColor=#b0e3e6;horizontalStack=0;resizeParent=1;resizeParentMax=0;resizeLast=0;collapsible=1;marginBottom=0;strokeColor=#0e8088;" parent="1" vertex="1">
          <mxGeometry x="815" y="-146" width="140" height="104" as="geometry" />
        </mxCell>
        <mxCell id="dlsL4Dd-ksCW8n_tkzhh-252" value="+ moduledId (hidden)" style="text;align=left;verticalAlign=top;spacingLeft=4;spacingRight=4;overflow=hidden;rotatable=0;points=[[0,0.5],[1,0.5]];portConstraint=eastwest;fillColor=default;fontStyle=1" parent="dlsL4Dd-ksCW8n_tkzhh-251" vertex="1">
          <mxGeometry y="26" width="140" height="26" as="geometry" />
        </mxCell>
        <mxCell id="dlsL4Dd-ksCW8n_tkzhh-254" value="+ deviceId" style="text;align=left;verticalAlign=top;spacingLeft=4;spacingRight=4;overflow=hidden;rotatable=0;points=[[0,0.5],[1,0.5]];portConstraint=eastwest;fillColor=#ffe6cc;strokeColor=none;gradientDirection=north;gradientColor=#FFFFFF;" parent="dlsL4Dd-ksCW8n_tkzhh-251" vertex="1">
          <mxGeometry y="52" width="140" height="26" as="geometry" />
        </mxCell>
        <mxCell id="dlsL4Dd-ksCW8n_tkzhh-255" value="+ partlTime" style="text;align=left;verticalAlign=top;spacingLeft=4;spacingRight=4;overflow=hidden;rotatable=0;points=[[0,0.5],[1,0.5]];portConstraint=eastwest;fillColor=default;" parent="dlsL4Dd-ksCW8n_tkzhh-251" vertex="1">
          <mxGeometry y="78" width="140" height="26" as="geometry" />
        </mxCell>
        <mxCell id="dlsL4Dd-ksCW8n_tkzhh-259" style="edgeStyle=orthogonalEdgeStyle;rounded=0;orthogonalLoop=1;jettySize=auto;html=1;exitX=1;exitY=0.5;exitDx=0;exitDy=0;entryX=0;entryY=0.5;entryDx=0;entryDy=0;strokeWidth=1;fontSize=19;fillColor=#b0e3e6;strokeColor=#0e8088;" parent="1" source="dlsL4Dd-ksCW8n_tkzhh-252" target="dlsL4Dd-ksCW8n_tkzhh-217" edge="1">
          <mxGeometry relative="1" as="geometry">
            <Array as="points">
              <mxPoint x="975" y="-107" />
              <mxPoint x="975" y="-30" />
              <mxPoint x="795" y="-30" />
              <mxPoint x="795" y="45" />
            </Array>
          </mxGeometry>
        </mxCell>
        <mxCell id="dlsL4Dd-ksCW8n_tkzhh-263" style="edgeStyle=orthogonalEdgeStyle;rounded=0;orthogonalLoop=1;jettySize=auto;html=1;exitX=1;exitY=0.5;exitDx=0;exitDy=0;strokeWidth=1;fontSize=19;fillColor=#dae8fc;strokeColor=#6c8ebf;" parent="1" source="dlsL4Dd-ksCW8n_tkzhh-16" edge="1">
          <mxGeometry relative="1" as="geometry">
            <Array as="points">
              <mxPoint x="760" y="319" />
              <mxPoint x="760" y="210" />
              <mxPoint x="780" y="210" />
              <mxPoint x="780" y="291" />
            </Array>
            <mxPoint x="815" y="291" as="targetPoint" />
          </mxGeometry>
        </mxCell>
        <mxCell id="dlsL4Dd-ksCW8n_tkzhh-75" value="Department" style="swimlane;fontStyle=0;childLayout=stackLayout;horizontal=1;startSize=26;fillColor=#e1d5e7;horizontalStack=0;resizeParent=1;resizeParentMax=0;resizeLast=0;collapsible=1;marginBottom=0;strokeColor=#9673a6;" parent="1" vertex="1">
          <mxGeometry x="410" y="-153.7851515151515" width="140" height="183.5757575757576" as="geometry" />
        </mxCell>
        <mxCell id="dlsL4Dd-ksCW8n_tkzhh-76" value="+ dptoId (hidden)" style="text;align=left;verticalAlign=top;spacingLeft=4;spacingRight=4;overflow=hidden;rotatable=0;points=[[0,0.5],[1,0.5]];portConstraint=eastwest;fillColor=default;fontStyle=1" parent="dlsL4Dd-ksCW8n_tkzhh-75" vertex="1">
          <mxGeometry y="26" width="140" height="31.51515151515152" as="geometry" />
        </mxCell>
        <mxCell id="dlsL4Dd-ksCW8n_tkzhh-78" value="+ dptoNameShort" style="text;align=left;verticalAlign=top;spacingLeft=4;spacingRight=4;overflow=hidden;rotatable=0;points=[[0,0.5],[1,0.5]];portConstraint=eastwest;fillColor=default;" parent="dlsL4Dd-ksCW8n_tkzhh-75" vertex="1">
          <mxGeometry y="57.515151515151516" width="140" height="31.51515151515152" as="geometry" />
        </mxCell>
        <mxCell id="dlsL4Dd-ksCW8n_tkzhh-79" value="+ dptoNameLong" style="text;align=left;verticalAlign=top;spacingLeft=4;spacingRight=4;overflow=hidden;rotatable=0;points=[[0,0.5],[1,0.5]];portConstraint=eastwest;fillColor=default;" parent="dlsL4Dd-ksCW8n_tkzhh-75" vertex="1">
          <mxGeometry y="89.03030303030303" width="140" height="31.51515151515152" as="geometry" />
        </mxCell>
        <mxCell id="dlsL4Dd-ksCW8n_tkzhh-88" value="+ dptoEmail" style="text;align=left;verticalAlign=top;spacingLeft=4;spacingRight=4;overflow=hidden;rotatable=0;points=[[0,0.5],[1,0.5]];portConstraint=eastwest;fillColor=default;" parent="dlsL4Dd-ksCW8n_tkzhh-75" vertex="1">
          <mxGeometry y="120.54545454545455" width="140" height="31.51515151515152" as="geometry" />
        </mxCell>
        <mxCell id="dlsL4Dd-ksCW8n_tkzhh-89" value="+ dptoColor" style="text;align=left;verticalAlign=top;spacingLeft=4;spacingRight=4;overflow=hidden;rotatable=0;points=[[0,0.5],[1,0.5]];portConstraint=eastwest;fillColor=default;" parent="dlsL4Dd-ksCW8n_tkzhh-75" vertex="1">
          <mxGeometry y="152.06060606060606" width="140" height="31.51515151515152" as="geometry" />
        </mxCell>
        <mxCell id="dlsL4Dd-ksCW8n_tkzhh-80" value="JobTitle" style="swimlane;fontStyle=0;childLayout=stackLayout;horizontal=1;startSize=26;fillColor=#ffe6cc;horizontalStack=0;resizeParent=1;resizeParentMax=0;resizeLast=0;collapsible=1;marginBottom=0;strokeColor=#d79b00;" parent="1" vertex="1">
          <mxGeometry x="580" y="-153.7851515151515" width="140" height="183.5757575757576" as="geometry" />
        </mxCell>
        <mxCell id="dlsL4Dd-ksCW8n_tkzhh-81" value="+ jobtId (hidden)" style="text;align=left;verticalAlign=top;spacingLeft=4;spacingRight=4;overflow=hidden;rotatable=0;points=[[0,0.5],[1,0.5]];portConstraint=eastwest;fillColor=default;fontStyle=1" parent="dlsL4Dd-ksCW8n_tkzhh-80" vertex="1">
          <mxGeometry y="26" width="140" height="31.51515151515152" as="geometry" />
        </mxCell>
        <mxCell id="dlsL4Dd-ksCW8n_tkzhh-90" value="+ dptoId" style="text;align=left;verticalAlign=top;spacingLeft=4;spacingRight=4;overflow=hidden;rotatable=0;points=[[0,0.5],[1,0.5]];portConstraint=eastwest;fillColor=#e1d5e7;strokeColor=none;gradientDirection=north;gradientColor=#FFFFFF;" parent="dlsL4Dd-ksCW8n_tkzhh-80" vertex="1">
          <mxGeometry y="57.515151515151516" width="140" height="31.51515151515152" as="geometry" />
        </mxCell>
        <mxCell id="dlsL4Dd-ksCW8n_tkzhh-84" value="+ jobtName" style="text;align=left;verticalAlign=top;spacingLeft=4;spacingRight=4;overflow=hidden;rotatable=0;points=[[0,0.5],[1,0.5]];portConstraint=eastwest;fillColor=default;" parent="dlsL4Dd-ksCW8n_tkzhh-80" vertex="1">
          <mxGeometry y="89.03030303030303" width="140" height="31.51515151515152" as="geometry" />
        </mxCell>
        <mxCell id="dlsL4Dd-ksCW8n_tkzhh-83" value="+ jobtEmail" style="text;align=left;verticalAlign=top;spacingLeft=4;spacingRight=4;overflow=hidden;rotatable=0;points=[[0,0.5],[1,0.5]];portConstraint=eastwest;fillColor=default;" parent="dlsL4Dd-ksCW8n_tkzhh-80" vertex="1">
          <mxGeometry y="120.54545454545455" width="140" height="31.51515151515152" as="geometry" />
        </mxCell>
        <mxCell id="dlsL4Dd-ksCW8n_tkzhh-180" value="+ jobtSalary" style="text;align=left;verticalAlign=top;spacingLeft=4;spacingRight=4;overflow=hidden;rotatable=0;points=[[0,0.5],[1,0.5]];portConstraint=eastwest;fillColor=default;" parent="dlsL4Dd-ksCW8n_tkzhh-80" vertex="1">
          <mxGeometry y="152.06060606060606" width="140" height="31.51515151515152" as="geometry" />
        </mxCell>
        <mxCell id="dlsL4Dd-ksCW8n_tkzhh-109" style="edgeStyle=orthogonalEdgeStyle;rounded=0;orthogonalLoop=1;jettySize=auto;html=1;fontSize=19;fillColor=#e1d5e7;strokeColor=#9673a6;" parent="1" source="dlsL4Dd-ksCW8n_tkzhh-76" target="dlsL4Dd-ksCW8n_tkzhh-90" edge="1">
          <mxGeometry relative="1" as="geometry">
            <Array as="points">
              <mxPoint x="560" y="-114" />
              <mxPoint x="560" y="-73" />
            </Array>
          </mxGeometry>
        </mxCell>
        <mxCell id="dlsL4Dd-ksCW8n_tkzhh-115" value="Job" style="swimlane;fontStyle=0;childLayout=stackLayout;horizontal=1;startSize=26;fillColor=#d5e8d4;horizontalStack=0;resizeParent=1;resizeParentMax=0;resizeLast=0;collapsible=1;marginBottom=0;strokeColor=#82b366;" parent="1" vertex="1">
          <mxGeometry x="580" y="64.72666666666669" width="140" height="120.54545454545455" as="geometry" />
        </mxCell>
        <mxCell id="dlsL4Dd-ksCW8n_tkzhh-166" value="+ jobId (hidden)" style="text;align=left;verticalAlign=top;spacingLeft=4;spacingRight=4;overflow=hidden;rotatable=0;points=[[0,0.5],[1,0.5]];portConstraint=eastwest;fillColor=default;fontStyle=1" parent="dlsL4Dd-ksCW8n_tkzhh-115" vertex="1">
          <mxGeometry y="26" width="140" height="31.51515151515152" as="geometry" />
        </mxCell>
        <mxCell id="dlsL4Dd-ksCW8n_tkzhh-121" value="- workerId" style="text;strokeColor=none;fillColor=#dae8fc;align=left;verticalAlign=top;spacingLeft=4;spacingRight=4;overflow=hidden;rotatable=0;points=[[0,0.5],[1,0.5]];portConstraint=eastwest;gradientColor=#FFFFFF;gradientDirection=north;" parent="dlsL4Dd-ksCW8n_tkzhh-115" vertex="1">
          <mxGeometry y="57.515151515151516" width="140" height="31.51515151515152" as="geometry" />
        </mxCell>
        <mxCell id="dlsL4Dd-ksCW8n_tkzhh-117" value="+ addrbId" style="text;align=left;verticalAlign=top;spacingLeft=4;spacingRight=4;overflow=hidden;rotatable=0;points=[[0,0.5],[1,0.5]];portConstraint=eastwest;fillColor=#ffe6cc;strokeColor=none;gradientDirection=north;gradientColor=#FFFFFF;" parent="dlsL4Dd-ksCW8n_tkzhh-115" vertex="1">
          <mxGeometry y="89.03030303030303" width="140" height="31.51515151515152" as="geometry" />
        </mxCell>
        <mxCell id="dlsL4Dd-ksCW8n_tkzhh-211" style="edgeStyle=orthogonalEdgeStyle;rounded=0;orthogonalLoop=1;jettySize=auto;html=1;exitX=1;exitY=0.5;exitDx=0;exitDy=0;entryX=0;entryY=0.5;entryDx=0;entryDy=0;fontSize=19;fillColor=#ffe6cc;strokeColor=#d79b00;" parent="1" source="dlsL4Dd-ksCW8n_tkzhh-81" target="dlsL4Dd-ksCW8n_tkzhh-117" edge="1">
          <mxGeometry relative="1" as="geometry">
            <Array as="points">
              <mxPoint x="710" y="-104" />
              <mxPoint x="730" y="-104" />
              <mxPoint x="730" y="55" />
              <mxPoint x="550" y="55" />
              <mxPoint x="550" y="172" />
            </Array>
          </mxGeometry>
        </mxCell>
        <mxCell id="dlsL4Dd-ksCW8n_tkzhh-280" value="PartPicture" style="swimlane;fontStyle=0;childLayout=stackLayout;horizontal=1;startSize=26;fillColor=#bac8d3;horizontalStack=0;resizeParent=1;resizeParentMax=0;resizeLast=0;collapsible=1;marginBottom=0;strokeColor=#23445d;" parent="1" vertex="1">
          <mxGeometry x="1025" y="304" width="140" height="130" as="geometry" />
        </mxCell>
        <mxCell id="dlsL4Dd-ksCW8n_tkzhh-281" value="+ partpId (hidden)" style="text;align=left;verticalAlign=top;spacingLeft=4;spacingRight=4;overflow=hidden;rotatable=0;points=[[0,0.5],[1,0.5]];portConstraint=eastwest;fillColor=default;fontStyle=1" parent="dlsL4Dd-ksCW8n_tkzhh-280" vertex="1">
          <mxGeometry y="26" width="140" height="26" as="geometry" />
        </mxCell>
        <mxCell id="dlsL4Dd-ksCW8n_tkzhh-283" value="+ partpDateLong" style="text;align=left;verticalAlign=top;spacingLeft=4;spacingRight=4;overflow=hidden;rotatable=0;points=[[0,0.5],[1,0.5]];portConstraint=eastwest;fillColor=default;" parent="dlsL4Dd-ksCW8n_tkzhh-280" vertex="1">
          <mxGeometry y="52" width="140" height="26" as="geometry" />
        </mxCell>
        <mxCell id="dlsL4Dd-ksCW8n_tkzhh-284" value="+ partpPicture" style="text;align=left;verticalAlign=top;spacingLeft=4;spacingRight=4;overflow=hidden;rotatable=0;points=[[0,0.5],[1,0.5]];portConstraint=eastwest;fillColor=default;" parent="dlsL4Dd-ksCW8n_tkzhh-280" vertex="1">
          <mxGeometry y="78" width="140" height="26" as="geometry" />
        </mxCell>
        <mxCell id="dlsL4Dd-ksCW8n_tkzhh-293" value="+ partpDescrip" style="text;align=left;verticalAlign=top;spacingLeft=4;spacingRight=4;overflow=hidden;rotatable=0;points=[[0,0.5],[1,0.5]];portConstraint=eastwest;fillColor=default;" parent="dlsL4Dd-ksCW8n_tkzhh-280" vertex="1">
          <mxGeometry y="104" width="140" height="26" as="geometry" />
        </mxCell>
        <mxCell id="dlsL4Dd-ksCW8n_tkzhh-285" value="PartView" style="swimlane;fontStyle=0;childLayout=stackLayout;horizontal=1;startSize=26;fillColor=#cdeb8b;horizontalStack=0;resizeParent=1;resizeParentMax=0;resizeLast=0;collapsible=1;marginBottom=0;strokeColor=#36393d;" parent="1" vertex="1">
          <mxGeometry x="1025" y="200" width="140" height="78" as="geometry" />
        </mxCell>
        <mxCell id="dlsL4Dd-ksCW8n_tkzhh-287" value="+ deviceId" style="text;align=left;verticalAlign=top;spacingLeft=4;spacingRight=4;overflow=hidden;rotatable=0;points=[[0,0.5],[1,0.5]];portConstraint=eastwest;fillColor=#ffe6cc;strokeColor=none;gradientColor=#FFFFFF;gradientDirection=north;" parent="dlsL4Dd-ksCW8n_tkzhh-285" vertex="1">
          <mxGeometry y="26" width="140" height="26" as="geometry" />
        </mxCell>
        <mxCell id="dlsL4Dd-ksCW8n_tkzhh-290" value="+ partpId" style="text;align=left;verticalAlign=top;spacingLeft=4;spacingRight=4;overflow=hidden;rotatable=0;points=[[0,0.5],[1,0.5]];portConstraint=eastwest;fillColor=#cdeb8b;strokeColor=none;gradientDirection=north;gradientColor=#FFFFFF;" parent="dlsL4Dd-ksCW8n_tkzhh-285" vertex="1">
          <mxGeometry y="52" width="140" height="26" as="geometry" />
        </mxCell>
        <mxCell id="dlsL4Dd-ksCW8n_tkzhh-291" style="edgeStyle=orthogonalEdgeStyle;rounded=0;orthogonalLoop=1;jettySize=auto;html=1;exitX=1;exitY=0.5;exitDx=0;exitDy=0;entryX=0;entryY=0.5;entryDx=0;entryDy=0;strokeWidth=1;fontSize=19;fillColor=#f8cecc;strokeColor=#b85450;" parent="1" source="dlsL4Dd-ksCW8n_tkzhh-201" target="dlsL4Dd-ksCW8n_tkzhh-287" edge="1">
          <mxGeometry relative="1" as="geometry">
            <Array as="points">
              <mxPoint x="980" y="19" />
              <mxPoint x="980" y="239" />
            </Array>
          </mxGeometry>
        </mxCell>
        <mxCell id="dlsL4Dd-ksCW8n_tkzhh-292" style="edgeStyle=orthogonalEdgeStyle;rounded=0;orthogonalLoop=1;jettySize=auto;html=1;exitX=1;exitY=0.5;exitDx=0;exitDy=0;entryX=0;entryY=0.5;entryDx=0;entryDy=0;strokeWidth=1;fontSize=19;fillColor=#bac8d3;strokeColor=#23445d;" parent="1" source="dlsL4Dd-ksCW8n_tkzhh-281" target="dlsL4Dd-ksCW8n_tkzhh-290" edge="1">
          <mxGeometry relative="1" as="geometry">
            <Array as="points">
              <mxPoint x="1185" y="343" />
              <mxPoint x="1185" y="290" />
              <mxPoint x="1005" y="290" />
              <mxPoint x="1005" y="265" />
            </Array>
          </mxGeometry>
        </mxCell>
        <mxCell id="cD9mGEIVk1Ho0BIzYAdp-1" value="Warehouse" style="html=1;gradientDirection=north;verticalAlign=top;fontSize=19;glass=0;rounded=1;dashed=1;" parent="1" vertex="1">
          <mxGeometry x="10" y="-200" width="370" height="870" as="geometry" />
        </mxCell>
        <mxCell id="cD9mGEIVk1Ho0BIzYAdp-2" value="CategoryItem" style="swimlane;fontStyle=1;align=center;verticalAlign=top;childLayout=stackLayout;horizontal=1;startSize=26;horizontalStack=0;resizeParent=1;resizeParentMax=0;resizeLast=0;collapsible=1;marginBottom=0;fillColor=#e1d5e7;strokeColor=#9673a6;" parent="1" vertex="1">
          <mxGeometry x="45" y="-153.79" width="115" height="104" as="geometry" />
        </mxCell>
        <mxCell id="cD9mGEIVk1Ho0BIzYAdp-3" value="+ catiId (hidden)" style="text;align=left;verticalAlign=top;spacingLeft=4;spacingRight=4;overflow=hidden;rotatable=0;points=[[0,0.5],[1,0.5]];portConstraint=eastwest;fillColor=default;fontStyle=1" parent="cD9mGEIVk1Ho0BIzYAdp-2" vertex="1">
          <mxGeometry y="26" width="115" height="26" as="geometry" />
        </mxCell>
        <mxCell id="cD9mGEIVk1Ho0BIzYAdp-4" value="+ catiName" style="text;align=left;verticalAlign=top;spacingLeft=4;spacingRight=4;overflow=hidden;rotatable=0;points=[[0,0.5],[1,0.5]];portConstraint=eastwest;fillColor=default;" parent="cD9mGEIVk1Ho0BIzYAdp-2" vertex="1">
          <mxGeometry y="52" width="115" height="26" as="geometry" />
        </mxCell>
        <mxCell id="cD9mGEIVk1Ho0BIzYAdp-5" value="+ catiDescr" style="text;align=left;verticalAlign=top;spacingLeft=4;spacingRight=4;overflow=hidden;rotatable=0;points=[[0,0.5],[1,0.5]];portConstraint=eastwest;fillColor=default;" parent="cD9mGEIVk1Ho0BIzYAdp-2" vertex="1">
          <mxGeometry y="78" width="115" height="26" as="geometry" />
        </mxCell>
        <mxCell id="cD9mGEIVk1Ho0BIzYAdp-8" value="Item" style="swimlane;fontStyle=0;childLayout=stackLayout;horizontal=1;startSize=26;fillColor=#fff2cc;horizontalStack=0;resizeParent=1;resizeParentMax=0;resizeLast=0;collapsible=1;marginBottom=0;strokeColor=#d6b656;" parent="1" vertex="1">
          <mxGeometry x="205" y="-153.79000000000002" width="140" height="161.51515151515153" as="geometry" />
        </mxCell>
        <mxCell id="cD9mGEIVk1Ho0BIzYAdp-9" value="+ itemId (hidden)" style="text;align=left;verticalAlign=top;spacingLeft=4;spacingRight=4;overflow=hidden;rotatable=0;points=[[0,0.5],[1,0.5]];portConstraint=eastwest;fillColor=default;fontStyle=1" parent="cD9mGEIVk1Ho0BIzYAdp-8" vertex="1">
          <mxGeometry y="26" width="140" height="26" as="geometry" />
        </mxCell>
        <mxCell id="cD9mGEIVk1Ho0BIzYAdp-12" value="+ itemName" style="text;align=left;verticalAlign=top;spacingLeft=4;spacingRight=4;overflow=hidden;rotatable=0;points=[[0,0.5],[1,0.5]];portConstraint=eastwest;fillColor=default;" parent="cD9mGEIVk1Ho0BIzYAdp-8" vertex="1">
          <mxGeometry y="52" width="140" height="26" as="geometry" />
        </mxCell>
        <mxCell id="cD9mGEIVk1Ho0BIzYAdp-13" value="+ itemDescr" style="text;align=left;verticalAlign=top;spacingLeft=4;spacingRight=4;overflow=hidden;rotatable=0;points=[[0,0.5],[1,0.5]];portConstraint=eastwest;fillColor=default;" parent="cD9mGEIVk1Ho0BIzYAdp-8" vertex="1">
          <mxGeometry y="78" width="140" height="26" as="geometry" />
        </mxCell>
        <mxCell id="cD9mGEIVk1Ho0BIzYAdp-10" value="+ addrbId" style="text;align=left;verticalAlign=top;spacingLeft=4;spacingRight=4;overflow=hidden;rotatable=0;points=[[0,0.5],[1,0.5]];portConstraint=eastwest;fillColor=#E6D0DE;strokeColor=none;gradientDirection=north;gradientColor=#FFFFFF;" parent="cD9mGEIVk1Ho0BIzYAdp-8" vertex="1">
          <mxGeometry y="104" width="140" height="26" as="geometry" />
        </mxCell>
        <mxCell id="-k2Xn9ZAjX-aGM0QEJ7x-3" value="- workerId" style="text;strokeColor=none;fillColor=#dae8fc;align=left;verticalAlign=top;spacingLeft=4;spacingRight=4;overflow=hidden;rotatable=0;points=[[0,0.5],[1,0.5]];portConstraint=eastwest;gradientColor=#FFFFFF;gradientDirection=north;" parent="cD9mGEIVk1Ho0BIzYAdp-8" vertex="1">
          <mxGeometry y="130" width="140" height="31.51515151515152" as="geometry" />
        </mxCell>
        <mxCell id="cD9mGEIVk1Ho0BIzYAdp-17" style="edgeStyle=orthogonalEdgeStyle;rounded=0;orthogonalLoop=1;jettySize=auto;html=1;exitX=1;exitY=0.5;exitDx=0;exitDy=0;entryX=0;entryY=0.75;entryDx=0;entryDy=0;fillColor=#e1d5e7;strokeColor=#9673a6;" parent="1" source="cD9mGEIVk1Ho0BIzYAdp-3" target="cD9mGEIVk1Ho0BIzYAdp-8" edge="1">
          <mxGeometry relative="1" as="geometry">
            <Array as="points">
              <mxPoint x="170" y="-115" />
              <mxPoint x="170" y="-33" />
            </Array>
          </mxGeometry>
        </mxCell>
        <mxCell id="cD9mGEIVk1Ho0BIzYAdp-18" style="edgeStyle=orthogonalEdgeStyle;rounded=0;orthogonalLoop=1;jettySize=auto;html=1;exitX=1;exitY=0.5;exitDx=0;exitDy=0;entryX=0;entryY=0.5;entryDx=0;entryDy=0;fillColor=#dae8fc;strokeColor=#6c8ebf;" parent="1" source="dlsL4Dd-ksCW8n_tkzhh-16" edge="1">
          <mxGeometry relative="1" as="geometry">
            <Array as="points">
              <mxPoint x="760" y="319" />
              <mxPoint x="760" y="690" />
              <mxPoint y="690" />
              <mxPoint y="-40" />
              <mxPoint x="160" y="-40" />
              <mxPoint x="160" y="-30" />
              <mxPoint x="190" y="-30" />
              <mxPoint x="190" y="-11" />
            </Array>
            <mxPoint x="205" y="-10.789999999999964" as="targetPoint" />
          </mxGeometry>
        </mxCell>
        <mxCell id="cD9mGEIVk1Ho0BIzYAdp-19" value="MaterialSheet" style="swimlane;fontStyle=0;childLayout=stackLayout;horizontal=1;startSize=26;fillColor=#ffe6cc;horizontalStack=0;resizeParent=1;resizeParentMax=0;resizeLast=0;collapsible=1;marginBottom=0;strokeColor=#d79b00;" parent="1" vertex="1">
          <mxGeometry x="205" y="29.789999999999985" width="140" height="265.5151515151515" as="geometry" />
        </mxCell>
        <mxCell id="cD9mGEIVk1Ho0BIzYAdp-20" value="+ matshId (hidden)" style="text;align=left;verticalAlign=top;spacingLeft=4;spacingRight=4;overflow=hidden;rotatable=0;points=[[0,0.5],[1,0.5]];portConstraint=eastwest;fillColor=default;fontStyle=1" parent="cD9mGEIVk1Ho0BIzYAdp-19" vertex="1">
          <mxGeometry y="26" width="140" height="26" as="geometry" />
        </mxCell>
        <mxCell id="cD9mGEIVk1Ho0BIzYAdp-22" value="+ matshCode" style="text;align=left;verticalAlign=top;spacingLeft=4;spacingRight=4;overflow=hidden;rotatable=0;points=[[0,0.5],[1,0.5]];portConstraint=eastwest;fillColor=default;" parent="cD9mGEIVk1Ho0BIzYAdp-19" vertex="1">
          <mxGeometry y="52" width="140" height="26" as="geometry" />
        </mxCell>
        <mxCell id="cD9mGEIVk1Ho0BIzYAdp-23" value="+ matshDateReg" style="text;align=left;verticalAlign=top;spacingLeft=4;spacingRight=4;overflow=hidden;rotatable=0;points=[[0,0.5],[1,0.5]];portConstraint=eastwest;fillColor=default;" parent="cD9mGEIVk1Ho0BIzYAdp-19" vertex="1">
          <mxGeometry y="78" width="140" height="26" as="geometry" />
        </mxCell>
        <mxCell id="cD9mGEIVk1Ho0BIzYAdp-24" value="+ matshDateUpdate" style="text;align=left;verticalAlign=top;spacingLeft=4;spacingRight=4;overflow=hidden;rotatable=0;points=[[0,0.5],[1,0.5]];portConstraint=eastwest;fillColor=default;" parent="cD9mGEIVk1Ho0BIzYAdp-19" vertex="1">
          <mxGeometry y="104" width="140" height="26" as="geometry" />
        </mxCell>
        <mxCell id="cD9mGEIVk1Ho0BIzYAdp-25" value="+ matshValue" style="text;align=left;verticalAlign=top;spacingLeft=4;spacingRight=4;overflow=hidden;rotatable=0;points=[[0,0.5],[1,0.5]];portConstraint=eastwest;fillColor=default;" parent="cD9mGEIVk1Ho0BIzYAdp-19" vertex="1">
          <mxGeometry y="130" width="140" height="26" as="geometry" />
        </mxCell>
        <mxCell id="cD9mGEIVk1Ho0BIzYAdp-27" value="+ matshValueMin" style="text;align=left;verticalAlign=top;spacingLeft=4;spacingRight=4;overflow=hidden;rotatable=0;points=[[0,0.5],[1,0.5]];portConstraint=eastwest;fillColor=default;" parent="cD9mGEIVk1Ho0BIzYAdp-19" vertex="1">
          <mxGeometry y="156" width="140" height="26" as="geometry" />
        </mxCell>
        <mxCell id="cD9mGEIVk1Ho0BIzYAdp-26" value="+ matshValueMax" style="text;align=left;verticalAlign=top;spacingLeft=4;spacingRight=4;overflow=hidden;rotatable=0;points=[[0,0.5],[1,0.5]];portConstraint=eastwest;fillColor=default;" parent="cD9mGEIVk1Ho0BIzYAdp-19" vertex="1">
          <mxGeometry y="182" width="140" height="26" as="geometry" />
        </mxCell>
        <mxCell id="cD9mGEIVk1Ho0BIzYAdp-28" value="- itemId (hidden)" style="text;align=left;verticalAlign=top;spacingLeft=4;spacingRight=4;overflow=hidden;rotatable=0;points=[[0,0.5],[1,0.5]];portConstraint=eastwest;fillColor=#fff2cc;fontStyle=1;strokeColor=none;gradientDirection=north;gradientColor=#FFFFFF;" parent="cD9mGEIVk1Ho0BIzYAdp-19" vertex="1">
          <mxGeometry y="208" width="140" height="26" as="geometry" />
        </mxCell>
        <mxCell id="-k2Xn9ZAjX-aGM0QEJ7x-2" value="- workerId" style="text;strokeColor=none;fillColor=#dae8fc;align=left;verticalAlign=top;spacingLeft=4;spacingRight=4;overflow=hidden;rotatable=0;points=[[0,0.5],[1,0.5]];portConstraint=eastwest;gradientColor=#FFFFFF;gradientDirection=north;" parent="cD9mGEIVk1Ho0BIzYAdp-19" vertex="1">
          <mxGeometry y="234" width="140" height="31.51515151515152" as="geometry" />
        </mxCell>
        <mxCell id="cD9mGEIVk1Ho0BIzYAdp-29" style="edgeStyle=orthogonalEdgeStyle;rounded=0;orthogonalLoop=1;jettySize=auto;html=1;exitX=1;exitY=0.5;exitDx=0;exitDy=0;entryX=1;entryY=0.5;entryDx=0;entryDy=0;fillColor=#f5f5f5;strokeColor=#666666;endArrow=none;endFill=0;" parent="1" source="cD9mGEIVk1Ho0BIzYAdp-9" target="cD9mGEIVk1Ho0BIzYAdp-28" edge="1">
          <mxGeometry relative="1" as="geometry">
            <Array as="points">
              <mxPoint x="360" y="-115" />
              <mxPoint x="360" y="251" />
            </Array>
          </mxGeometry>
        </mxCell>
        <mxCell id="cD9mGEIVk1Ho0BIzYAdp-30" value="EntryMS" style="swimlane;fontStyle=0;childLayout=stackLayout;horizontal=1;startSize=26;fillColor=#d5e8d4;horizontalStack=0;resizeParent=1;resizeParentMax=0;resizeLast=0;collapsible=1;marginBottom=0;strokeColor=#82b366;" parent="1" vertex="1">
          <mxGeometry x="45" y="-10" width="130" height="256.06060606060606" as="geometry" />
        </mxCell>
        <mxCell id="cD9mGEIVk1Ho0BIzYAdp-31" value="+ jobId (hidden)" style="text;align=left;verticalAlign=top;spacingLeft=4;spacingRight=4;overflow=hidden;rotatable=0;points=[[0,0.5],[1,0.5]];portConstraint=eastwest;fillColor=default;fontStyle=1" parent="cD9mGEIVk1Ho0BIzYAdp-30" vertex="1">
          <mxGeometry y="26" width="130" height="31.51515151515152" as="geometry" />
        </mxCell>
        <mxCell id="cD9mGEIVk1Ho0BIzYAdp-36" value="+ entmsDate" style="text;align=left;verticalAlign=top;spacingLeft=4;spacingRight=4;overflow=hidden;rotatable=0;points=[[0,0.5],[1,0.5]];portConstraint=eastwest;fillColor=default;" parent="cD9mGEIVk1Ho0BIzYAdp-30" vertex="1">
          <mxGeometry y="57.515151515151516" width="130" height="26" as="geometry" />
        </mxCell>
        <mxCell id="cD9mGEIVk1Ho0BIzYAdp-37" value="+ entmsInvoice" style="text;align=left;verticalAlign=top;spacingLeft=4;spacingRight=4;overflow=hidden;rotatable=0;points=[[0,0.5],[1,0.5]];portConstraint=eastwest;fillColor=default;" parent="cD9mGEIVk1Ho0BIzYAdp-30" vertex="1">
          <mxGeometry y="83.51515151515152" width="130" height="26" as="geometry" />
        </mxCell>
        <mxCell id="cD9mGEIVk1Ho0BIzYAdp-38" value="+ entmsValueIn" style="text;align=left;verticalAlign=top;spacingLeft=4;spacingRight=4;overflow=hidden;rotatable=0;points=[[0,0.5],[1,0.5]];portConstraint=eastwest;fillColor=default;" parent="cD9mGEIVk1Ho0BIzYAdp-30" vertex="1">
          <mxGeometry y="109.51515151515152" width="130" height="26" as="geometry" />
        </mxCell>
        <mxCell id="cD9mGEIVk1Ho0BIzYAdp-39" value="+ entmsValueOut" style="text;align=left;verticalAlign=top;spacingLeft=4;spacingRight=4;overflow=hidden;rotatable=0;points=[[0,0.5],[1,0.5]];portConstraint=eastwest;fillColor=default;" parent="cD9mGEIVk1Ho0BIzYAdp-30" vertex="1">
          <mxGeometry y="135.5151515151515" width="130" height="26" as="geometry" />
        </mxCell>
        <mxCell id="-k2Xn9ZAjX-aGM0QEJ7x-1" value="- workerId" style="text;strokeColor=none;fillColor=#dae8fc;align=left;verticalAlign=top;spacingLeft=4;spacingRight=4;overflow=hidden;rotatable=0;points=[[0,0.5],[1,0.5]];portConstraint=eastwest;gradientColor=#FFFFFF;gradientDirection=north;" parent="cD9mGEIVk1Ho0BIzYAdp-30" vertex="1">
          <mxGeometry y="161.5151515151515" width="130" height="31.51515151515152" as="geometry" />
        </mxCell>
        <mxCell id="cD9mGEIVk1Ho0BIzYAdp-33" value="+ addrbId" style="text;align=left;verticalAlign=top;spacingLeft=4;spacingRight=4;overflow=hidden;rotatable=0;points=[[0,0.5],[1,0.5]];portConstraint=eastwest;fillColor=#ffe6cc;strokeColor=none;gradientDirection=north;gradientColor=#FFFFFF;" parent="cD9mGEIVk1Ho0BIzYAdp-30" vertex="1">
          <mxGeometry y="193.03030303030303" width="130" height="31.51515151515152" as="geometry" />
        </mxCell>
        <mxCell id="x2aFzdARZ-ZzbYc9SiS3-12" value="+ addrbId" style="text;align=left;verticalAlign=top;spacingLeft=4;spacingRight=4;overflow=hidden;rotatable=0;points=[[0,0.5],[1,0.5]];portConstraint=eastwest;fillColor=#E6E6E6;strokeColor=none;gradientDirection=north;gradientColor=#FFFFFF;" vertex="1" parent="cD9mGEIVk1Ho0BIzYAdp-30">
          <mxGeometry y="224.54545454545456" width="130" height="31.51515151515152" as="geometry" />
        </mxCell>
        <mxCell id="cD9mGEIVk1Ho0BIzYAdp-34" style="edgeStyle=orthogonalEdgeStyle;rounded=0;orthogonalLoop=1;jettySize=auto;html=1;exitX=1;exitY=0.5;exitDx=0;exitDy=0;entryX=0;entryY=0.5;entryDx=0;entryDy=0;endArrow=classic;endFill=1;fillColor=#dae8fc;strokeColor=#6c8ebf;" parent="1" source="dlsL4Dd-ksCW8n_tkzhh-16" edge="1" target="-k2Xn9ZAjX-aGM0QEJ7x-1">
          <mxGeometry relative="1" as="geometry">
            <Array as="points">
              <mxPoint x="760" y="319" />
              <mxPoint x="760" y="690" />
              <mxPoint y="690" />
              <mxPoint y="167" />
              <mxPoint x="45" y="167" />
            </Array>
            <mxPoint x="45" y="207.06272727272722" as="targetPoint" />
          </mxGeometry>
        </mxCell>
        <mxCell id="cD9mGEIVk1Ho0BIzYAdp-35" style="edgeStyle=orthogonalEdgeStyle;rounded=0;orthogonalLoop=1;jettySize=auto;html=1;exitX=1;exitY=0.5;exitDx=0;exitDy=0;entryX=0;entryY=0.5;entryDx=0;entryDy=0;endArrow=classic;endFill=1;fillColor=#ffe6cc;strokeColor=#d79b00;" parent="1" source="cD9mGEIVk1Ho0BIzYAdp-20" target="cD9mGEIVk1Ho0BIzYAdp-33" edge="1">
          <mxGeometry relative="1" as="geometry">
            <Array as="points">
              <mxPoint x="345" y="70" />
              <mxPoint x="370" y="70" />
              <mxPoint x="370" y="20" />
              <mxPoint x="200" y="20" />
              <mxPoint x="200" />
              <mxPoint x="180" />
              <mxPoint x="180" y="-20" />
              <mxPoint x="25" y="-20" />
              <mxPoint x="25" y="199" />
              <mxPoint x="45" y="199" />
            </Array>
          </mxGeometry>
        </mxCell>
        <mxCell id="cD9mGEIVk1Ho0BIzYAdp-41" style="edgeStyle=orthogonalEdgeStyle;rounded=0;orthogonalLoop=1;jettySize=auto;html=1;exitX=1;exitY=0.5;exitDx=0;exitDy=0;entryX=0;entryY=0.5;entryDx=0;entryDy=0;endArrow=classic;endFill=1;fillColor=#dae8fc;strokeColor=#6c8ebf;" parent="1" source="dlsL4Dd-ksCW8n_tkzhh-16" edge="1">
          <mxGeometry relative="1" as="geometry">
            <Array as="points">
              <mxPoint x="760" y="319" />
              <mxPoint x="760" y="690" />
              <mxPoint y="690" />
              <mxPoint y="260" />
              <mxPoint x="190" y="260" />
              <mxPoint x="190" y="280" />
            </Array>
            <mxPoint x="205" y="279.5475757575757" as="targetPoint" />
          </mxGeometry>
        </mxCell>
        <mxCell id="x2aFzdARZ-ZzbYc9SiS3-1" value="Requisition" style="swimlane;fontStyle=0;childLayout=stackLayout;horizontal=1;startSize=26;fillColor=#f5f5f5;horizontalStack=0;resizeParent=1;resizeParentMax=0;resizeLast=0;collapsible=1;marginBottom=0;strokeColor=#666666;fontColor=#333333;" vertex="1" parent="1">
          <mxGeometry x="40" y="270.0048484848484" width="140" height="215.09090909090912" as="geometry" />
        </mxCell>
        <mxCell id="x2aFzdARZ-ZzbYc9SiS3-2" value="+ reqId (hidden)" style="text;align=left;verticalAlign=top;spacingLeft=4;spacingRight=4;overflow=hidden;rotatable=0;points=[[0,0.5],[1,0.5]];portConstraint=eastwest;fillColor=default;fontStyle=1" vertex="1" parent="x2aFzdARZ-ZzbYc9SiS3-1">
          <mxGeometry y="26" width="140" height="31.51515151515152" as="geometry" />
        </mxCell>
        <mxCell id="x2aFzdARZ-ZzbYc9SiS3-7" value="# reqProv" style="text;align=left;verticalAlign=top;spacingLeft=4;spacingRight=4;overflow=hidden;rotatable=0;points=[[0,0.5],[1,0.5]];portConstraint=eastwest;fillColor=default;strokeColor=none;gradientColor=#F8CECC;gradientDirection=south;" vertex="1" parent="x2aFzdARZ-ZzbYc9SiS3-1">
          <mxGeometry y="57.515151515151516" width="140" height="31.51515151515152" as="geometry" />
        </mxCell>
        <mxCell id="x2aFzdARZ-ZzbYc9SiS3-3" value="+ reqDate" style="text;align=left;verticalAlign=top;spacingLeft=4;spacingRight=4;overflow=hidden;rotatable=0;points=[[0,0.5],[1,0.5]];portConstraint=eastwest;fillColor=default;" vertex="1" parent="x2aFzdARZ-ZzbYc9SiS3-1">
          <mxGeometry y="89.03030303030303" width="140" height="31.51515151515152" as="geometry" />
        </mxCell>
        <mxCell id="x2aFzdARZ-ZzbYc9SiS3-9" value="+ reqAprov (BOOL)" style="text;align=left;verticalAlign=top;spacingLeft=4;spacingRight=4;overflow=hidden;rotatable=0;points=[[0,0.5],[1,0.5]];portConstraint=eastwest;fillColor=default;" vertex="1" parent="x2aFzdARZ-ZzbYc9SiS3-1">
          <mxGeometry y="120.54545454545455" width="140" height="31.51515151515152" as="geometry" />
        </mxCell>
        <mxCell id="x2aFzdARZ-ZzbYc9SiS3-10" value="+ reqready (BOOL)" style="text;align=left;verticalAlign=top;spacingLeft=4;spacingRight=4;overflow=hidden;rotatable=0;points=[[0,0.5],[1,0.5]];portConstraint=eastwest;fillColor=default;" vertex="1" parent="x2aFzdARZ-ZzbYc9SiS3-1">
          <mxGeometry y="152.06060606060606" width="140" height="31.51515151515152" as="geometry" />
        </mxCell>
        <mxCell id="x2aFzdARZ-ZzbYc9SiS3-11" value="+ reqIVA" style="text;align=left;verticalAlign=top;spacingLeft=4;spacingRight=4;overflow=hidden;rotatable=0;points=[[0,0.5],[1,0.5]];portConstraint=eastwest;fillColor=default;" vertex="1" parent="x2aFzdARZ-ZzbYc9SiS3-1">
          <mxGeometry y="183.5757575757576" width="140" height="31.51515151515152" as="geometry" />
        </mxCell>
        <mxCell id="x2aFzdARZ-ZzbYc9SiS3-13" style="edgeStyle=orthogonalEdgeStyle;rounded=0;orthogonalLoop=1;jettySize=auto;html=1;exitX=0;exitY=0.5;exitDx=0;exitDy=0;fillColor=#f5f5f5;strokeColor=#666666;" edge="1" parent="1" source="x2aFzdARZ-ZzbYc9SiS3-2" target="x2aFzdARZ-ZzbYc9SiS3-12">
          <mxGeometry relative="1" as="geometry">
            <Array as="points">
              <mxPoint x="40" y="310" />
              <mxPoint x="20" y="310" />
              <mxPoint x="20" y="250" />
              <mxPoint x="195" y="250" />
              <mxPoint x="195" y="230" />
            </Array>
          </mxGeometry>
        </mxCell>
        <mxCell id="x2aFzdARZ-ZzbYc9SiS3-14" value="Provider" style="swimlane;fontStyle=0;childLayout=stackLayout;horizontal=1;startSize=26;fillColor=#f8cecc;horizontalStack=0;resizeParent=1;resizeParentMax=0;resizeLast=0;collapsible=1;marginBottom=0;strokeColor=#b85450;" vertex="1" parent="1">
          <mxGeometry x="205" y="316.99999999999994" width="140" height="286" as="geometry" />
        </mxCell>
        <mxCell id="x2aFzdARZ-ZzbYc9SiS3-15" value="+ provId (hidden)" style="text;align=left;verticalAlign=top;spacingLeft=4;spacingRight=4;overflow=hidden;rotatable=0;points=[[0,0.5],[1,0.5]];portConstraint=eastwest;fillColor=default;fontStyle=1" vertex="1" parent="x2aFzdARZ-ZzbYc9SiS3-14">
          <mxGeometry y="26" width="140" height="26" as="geometry" />
        </mxCell>
        <mxCell id="x2aFzdARZ-ZzbYc9SiS3-16" value="+ provName" style="text;align=left;verticalAlign=top;spacingLeft=4;spacingRight=4;overflow=hidden;rotatable=0;points=[[0,0.5],[1,0.5]];portConstraint=eastwest;fillColor=default;" vertex="1" parent="x2aFzdARZ-ZzbYc9SiS3-14">
          <mxGeometry y="52" width="140" height="26" as="geometry" />
        </mxCell>
        <mxCell id="x2aFzdARZ-ZzbYc9SiS3-25" value="+ provAddress" style="text;align=left;verticalAlign=top;spacingLeft=4;spacingRight=4;overflow=hidden;rotatable=0;points=[[0,0.5],[1,0.5]];portConstraint=eastwest;fillColor=default;" vertex="1" parent="x2aFzdARZ-ZzbYc9SiS3-14">
          <mxGeometry y="78" width="140" height="26" as="geometry" />
        </mxCell>
        <mxCell id="x2aFzdARZ-ZzbYc9SiS3-28" value="+ provContactName" style="text;align=left;verticalAlign=top;spacingLeft=4;spacingRight=4;overflow=hidden;rotatable=0;points=[[0,0.5],[1,0.5]];portConstraint=eastwest;fillColor=default;" vertex="1" parent="x2aFzdARZ-ZzbYc9SiS3-14">
          <mxGeometry y="104" width="140" height="26" as="geometry" />
        </mxCell>
        <mxCell id="x2aFzdARZ-ZzbYc9SiS3-26" value="+ provContactPhone" style="text;align=left;verticalAlign=top;spacingLeft=4;spacingRight=4;overflow=hidden;rotatable=0;points=[[0,0.5],[1,0.5]];portConstraint=eastwest;fillColor=default;" vertex="1" parent="x2aFzdARZ-ZzbYc9SiS3-14">
          <mxGeometry y="130" width="140" height="26" as="geometry" />
        </mxCell>
        <mxCell id="x2aFzdARZ-ZzbYc9SiS3-27" value="+ provContactEmail" style="text;align=left;verticalAlign=top;spacingLeft=4;spacingRight=4;overflow=hidden;rotatable=0;points=[[0,0.5],[1,0.5]];portConstraint=eastwest;fillColor=default;" vertex="1" parent="x2aFzdARZ-ZzbYc9SiS3-14">
          <mxGeometry y="156" width="140" height="26" as="geometry" />
        </mxCell>
        <mxCell id="x2aFzdARZ-ZzbYc9SiS3-36" value="+ provRFC" style="text;align=left;verticalAlign=top;spacingLeft=4;spacingRight=4;overflow=hidden;rotatable=0;points=[[0,0.5],[1,0.5]];portConstraint=eastwest;fillColor=default;" vertex="1" parent="x2aFzdARZ-ZzbYc9SiS3-14">
          <mxGeometry y="182" width="140" height="26" as="geometry" />
        </mxCell>
        <mxCell id="x2aFzdARZ-ZzbYc9SiS3-37" value="+ provCLABE" style="text;align=left;verticalAlign=top;spacingLeft=4;spacingRight=4;overflow=hidden;rotatable=0;points=[[0,0.5],[1,0.5]];portConstraint=eastwest;fillColor=default;" vertex="1" parent="x2aFzdARZ-ZzbYc9SiS3-14">
          <mxGeometry y="208" width="140" height="26" as="geometry" />
        </mxCell>
        <mxCell id="x2aFzdARZ-ZzbYc9SiS3-38" value="+ provACCOUNTN" style="text;align=left;verticalAlign=top;spacingLeft=4;spacingRight=4;overflow=hidden;rotatable=0;points=[[0,0.5],[1,0.5]];portConstraint=eastwest;fillColor=default;" vertex="1" parent="x2aFzdARZ-ZzbYc9SiS3-14">
          <mxGeometry y="234" width="140" height="26" as="geometry" />
        </mxCell>
        <mxCell id="x2aFzdARZ-ZzbYc9SiS3-39" value="+ provCurrency" style="text;align=left;verticalAlign=top;spacingLeft=4;spacingRight=4;overflow=hidden;rotatable=0;points=[[0,0.5],[1,0.5]];portConstraint=eastwest;fillColor=default;" vertex="1" parent="x2aFzdARZ-ZzbYc9SiS3-14">
          <mxGeometry y="260" width="140" height="26" as="geometry" />
        </mxCell>
        <mxCell id="x2aFzdARZ-ZzbYc9SiS3-24" style="edgeStyle=orthogonalEdgeStyle;rounded=0;orthogonalLoop=1;jettySize=auto;html=1;exitX=0;exitY=0.5;exitDx=0;exitDy=0;entryX=0;entryY=0.5;entryDx=0;entryDy=0;fillColor=#f8cecc;strokeColor=#b85450;" edge="1" parent="1" source="x2aFzdARZ-ZzbYc9SiS3-15" target="x2aFzdARZ-ZzbYc9SiS3-7">
          <mxGeometry relative="1" as="geometry">
            <Array as="points">
              <mxPoint x="185" y="356" />
              <mxPoint x="185" y="490" />
              <mxPoint x="30" y="490" />
              <mxPoint x="30" y="343" />
              <mxPoint x="40" y="343" />
            </Array>
          </mxGeometry>
        </mxCell>
        <mxCell id="x2aFzdARZ-ZzbYc9SiS3-40" value="ReqItem" style="swimlane;fontStyle=0;childLayout=stackLayout;horizontal=1;startSize=26;fillColor=#b0e3e6;horizontalStack=0;resizeParent=1;resizeParentMax=0;resizeLast=0;collapsible=1;marginBottom=0;strokeColor=#0e8088;" vertex="1" parent="1">
          <mxGeometry x="40" y="494" width="140" height="167.03030303030303" as="geometry" />
        </mxCell>
        <mxCell id="x2aFzdARZ-ZzbYc9SiS3-41" value="+ moduledId (hidden)" style="text;align=left;verticalAlign=top;spacingLeft=4;spacingRight=4;overflow=hidden;rotatable=0;points=[[0,0.5],[1,0.5]];portConstraint=eastwest;fillColor=default;fontStyle=1" vertex="1" parent="x2aFzdARZ-ZzbYc9SiS3-40">
          <mxGeometry y="26" width="140" height="26" as="geometry" />
        </mxCell>
        <mxCell id="x2aFzdARZ-ZzbYc9SiS3-46" value="+ requitemCant" style="text;align=left;verticalAlign=top;spacingLeft=4;spacingRight=4;overflow=hidden;rotatable=0;points=[[0,0.5],[1,0.5]];portConstraint=eastwest;fillColor=default;" vertex="1" parent="x2aFzdARZ-ZzbYc9SiS3-40">
          <mxGeometry y="52" width="140" height="31.51515151515152" as="geometry" />
        </mxCell>
        <mxCell id="x2aFzdARZ-ZzbYc9SiS3-47" value="+ requitemPrice" style="text;align=left;verticalAlign=top;spacingLeft=4;spacingRight=4;overflow=hidden;rotatable=0;points=[[0,0.5],[1,0.5]];portConstraint=eastwest;fillColor=default;" vertex="1" parent="x2aFzdARZ-ZzbYc9SiS3-40">
          <mxGeometry y="83.51515151515152" width="140" height="31.51515151515152" as="geometry" />
        </mxCell>
        <mxCell id="x2aFzdARZ-ZzbYc9SiS3-43" value="# reqitemItem" style="text;align=left;verticalAlign=top;spacingLeft=4;spacingRight=4;overflow=hidden;rotatable=0;points=[[0,0.5],[1,0.5]];portConstraint=eastwest;fillColor=#fff2cc;strokeColor=none;gradientColor=#FFFFFF;" vertex="1" parent="x2aFzdARZ-ZzbYc9SiS3-40">
          <mxGeometry y="115.03030303030303" width="140" height="26" as="geometry" />
        </mxCell>
        <mxCell id="x2aFzdARZ-ZzbYc9SiS3-48" value="# requitemReq" style="text;align=left;verticalAlign=top;spacingLeft=4;spacingRight=4;overflow=hidden;rotatable=0;points=[[0,0.5],[1,0.5]];portConstraint=eastwest;fillColor=#E6E6E6;strokeColor=none;gradientColor=#FFFFFF;gradientDirection=north;" vertex="1" parent="x2aFzdARZ-ZzbYc9SiS3-40">
          <mxGeometry y="141.03030303030303" width="140" height="26" as="geometry" />
        </mxCell>
        <mxCell id="x2aFzdARZ-ZzbYc9SiS3-44" style="edgeStyle=orthogonalEdgeStyle;rounded=0;orthogonalLoop=1;jettySize=auto;html=1;exitX=1;exitY=0.5;exitDx=0;exitDy=0;fillColor=#fff2cc;strokeColor=#d6b656;entryX=0;entryY=0.5;entryDx=0;entryDy=0;" edge="1" parent="1" source="cD9mGEIVk1Ho0BIzYAdp-9" target="x2aFzdARZ-ZzbYc9SiS3-43">
          <mxGeometry relative="1" as="geometry">
            <mxPoint x="-30" y="620" as="targetPoint" />
            <Array as="points">
              <mxPoint x="365" y="-115" />
              <mxPoint x="365" y="-160" />
              <mxPoint x="-20" y="-160" />
              <mxPoint x="-20" y="622" />
            </Array>
          </mxGeometry>
        </mxCell>
        <mxCell id="x2aFzdARZ-ZzbYc9SiS3-49" style="edgeStyle=orthogonalEdgeStyle;rounded=0;orthogonalLoop=1;jettySize=auto;html=1;exitX=0;exitY=0.5;exitDx=0;exitDy=0;entryX=0;entryY=0.5;entryDx=0;entryDy=0;fillColor=#f5f5f5;strokeColor=#666666;" edge="1" parent="1" source="x2aFzdARZ-ZzbYc9SiS3-2" target="x2aFzdARZ-ZzbYc9SiS3-48">
          <mxGeometry relative="1" as="geometry">
            <Array as="points">
              <mxPoint x="40" y="310" />
              <mxPoint x="20" y="310" />
              <mxPoint x="20" y="648" />
            </Array>
          </mxGeometry>
        </mxCell>
      </root>
    </mxGraphModel>
  </diagram>
</mxfile>
